<svg width="13" height="22" viewBox="0 0 13 22" fill="none" xmlns="http://www.w3.org/2000/svg">
<path d="M12.6896 1.88851C12.6896 1.57188 12.5672 1.27528 12.3447 1.05296L11.6366 0.345249C11.4145 0.122576 11.1175 0 10.8011 0C10.4846 0 10.188 0.122576 9.96568 0.345249L0.344548 9.96621C0.12135 10.1892 -0.000872682 10.4872 4.69802e-06 10.804C-0.000872682 11.1222 0.121167 11.4199 0.344548 11.6431L9.95673 21.2548C10.1791 21.4774 10.4757 21.6 10.7923 21.6C11.1087 21.6 11.4053 21.4774 11.6278 21.2548L12.3357 20.547C12.7963 20.0864 12.7963 19.3366 12.3357 18.8761L4.26416 10.8046L12.3447 2.72371C12.5672 2.50174 12.6896 2.20496 12.6896 1.88851Z" fill="#555555"/>
</svg>
