<svg width="47" height="40" viewBox="0 0 47 40" fill="none" xmlns="http://www.w3.org/2000/svg">
<path d="M0 9.99988C0 4.47703 4.47715 -0.00012207 10 -0.00012207H31C36.5228 -0.00012207 41 4.47703 41 9.99988V29.9999C41 35.5227 36.5228 39.9999 31 39.9999H10C4.47715 39.9999 0 35.5227 0 29.9999V9.99988Z" fill="#051336"/>
<path d="M16 -0.00012207H37C42.5228 -0.00012207 47 4.47703 47 9.99988V29.9999C47 35.5227 42.5228 39.9999 37 39.9999H16C10.4772 39.9999 6 35.5227 6 29.9999V9.99988C6 4.47703 10.4772 -0.00012207 16 -0.00012207Z" fill="#188DFF"/>
<path d="M3 9.99988C3 4.47703 7.47715 -0.00012207 13 -0.00012207H34C39.5228 -0.00012207 44 4.47703 44 9.99988V29.9999C44 35.5227 39.5228 39.9999 34 39.9999H13C7.47715 39.9999 3 35.5227 3 29.9999V9.99988Z" fill="#F7F5F9"/>
<path d="M18 19.9999H30" stroke="#051336" stroke-width="1.5" stroke-linecap="round" stroke-linejoin="round"/>
<path d="M24 25.9999V13.9999" stroke="#051336" stroke-width="1.5" stroke-linecap="round" stroke-linejoin="round"/>
</svg>
