<svg width="24" height="24" viewBox="0 0 24 24" fill="none" xmlns="http://www.w3.org/2000/svg">
<path d="M21 8.55H16.2C15.79 8.55 15.45 8.21 15.45 7.8V3C15.45 2.59 15.79 2.25 16.2 2.25C16.61 2.25 16.95 2.59 16.95 3V7.05H21C21.41 7.05 21.75 7.39 21.75 7.8C21.75 8.21 21.41 8.55 21 8.55Z" fill="white"/>
<path opacity="0.4" d="M11.79 14.21L8.52005 17.48C8.16005 17.16 7.81005 16.83 7.47005 16.49C6.44005 15.45 5.51005 14.36 4.68005 13.22C3.86005 12.08 3.20005 10.94 2.72005 9.81C2.24005 8.67 2.00005 7.58 2.00005 6.54C2.00005 5.86 2.12005 5.21 2.36005 4.61C2.60005 4 2.98005 3.44 3.51005 2.94C4.15005 2.31 4.85005 2 5.59005 2C5.87005 2 6.15005 2.06 6.40005 2.18C6.66005 2.3 6.89005 2.48 7.07005 2.74L9.39005 6.01C9.57005 6.26 9.70005 6.49 9.79005 6.71C9.88005 6.92 9.93005 7.13 9.93005 7.32C9.93005 7.56 9.86005 7.8 9.72005 8.03C9.59005 8.26 9.40005 8.5 9.16005 8.74L8.40005 9.53C8.29005 9.64 8.24005 9.77 8.24005 9.93C8.24005 10.01 8.25005 10.08 8.27005 10.16C8.30005 10.24 8.33005 10.3 8.35005 10.36C8.53005 10.69 8.84005 11.12 9.28005 11.64C9.73005 12.16 10.21 12.69 10.73 13.22C11.09 13.57 11.44 13.91 11.79 14.21Z" fill="white"/>
<path d="M21.9701 18.33C21.9701 18.61 21.9201 18.9 21.8201 19.18C21.7901 19.26 21.7601 19.34 21.7201 19.42C21.5501 19.78 21.3301 20.12 21.0401 20.44C20.5501 20.98 20.0101 21.37 19.4001 21.62C19.3901 21.62 19.3801 21.63 19.3701 21.63C18.7801 21.87 18.1401 22 17.4501 22C16.4301 22 15.3401 21.76 14.1901 21.27C13.0401 20.78 11.8901 20.12 10.7501 19.29C10.3601 19 9.97014 18.71 9.60014 18.4L12.8701 15.13C13.1501 15.34 13.4001 15.5 13.6101 15.61C13.6601 15.63 13.7201 15.66 13.7901 15.69C13.8701 15.72 13.9501 15.73 14.0401 15.73C14.2101 15.73 14.3401 15.67 14.4501 15.56L15.2101 14.81C15.4601 14.56 15.7001 14.37 15.9301 14.25C16.1601 14.11 16.3901 14.04 16.6401 14.04C16.8301 14.04 17.0301 14.08 17.2501 14.17C17.4701 14.26 17.7001 14.39 17.9501 14.56L21.2601 16.91C21.5201 17.09 21.7001 17.3 21.8101 17.55C21.9101 17.8 21.9701 18.05 21.9701 18.33Z" fill="white"/>
</svg>
