<svg width="33" height="33" viewBox="0 0 33 33" fill="none" xmlns="http://www.w3.org/2000/svg">
<path d="M21.6769 9.54747H12.6934C12.4788 9.54747 12.3047 9.37359 12.3047 9.15876V7.86152C12.3047 6.93277 13.0603 6.17712 13.9891 6.17712H20.3812C21.31 6.17712 22.0656 6.93277 22.0656 7.86152V9.15876C22.0656 9.37359 21.8915 9.54747 21.6769 9.54747ZM13.0821 8.77006H21.2882V7.86152C21.2882 7.36138 20.8814 6.95454 20.3812 6.95454H13.9891C13.4889 6.95454 13.0821 7.36138 13.0821 7.86152V8.77006Z" fill="#45AFE1"/>
<path d="M12.6993 24.3263C12.4847 24.3263 12.3105 24.1524 12.3105 23.9376V15.4687C12.3105 15.2538 12.4847 15.08 12.6993 15.08C12.9138 15.08 13.088 15.2538 13.088 15.4687V23.9376C13.088 24.1521 12.9138 24.3263 12.6993 24.3263Z" fill="#45AFE1"/>
<path d="M17.188 24.3263C16.9735 24.3263 16.7993 24.1524 16.7993 23.9376V15.4687C16.7993 15.2538 16.9735 15.08 17.188 15.08C17.4026 15.08 17.5767 15.2538 17.5767 15.4687V23.9376C17.5767 24.1521 17.4026 24.3263 17.188 24.3263Z" fill="#45AFE1"/>
<path d="M21.6768 24.3263C21.4622 24.3263 21.2881 24.1524 21.2881 23.9376V15.4687C21.2881 15.2538 21.4622 15.08 21.6768 15.08C21.8914 15.08 22.0655 15.2538 22.0655 15.4687V23.9376C22.0655 24.1521 21.8914 24.3263 21.6768 24.3263Z" fill="#45AFE1"/>
<path d="M24.992 12.7087H9.37791C8.53597 12.7087 7.85107 11.953 7.85107 11.0243V10.4544C7.85107 9.52567 8.53597 8.77002 9.37791 8.77002H24.992C25.834 8.77002 26.5189 9.52567 26.5189 10.4544V11.0243C26.5188 11.953 25.834 12.7087 24.992 12.7087ZM9.37791 9.54743C8.96459 9.54743 8.62849 9.95428 8.62849 10.4544V11.0243C8.62849 11.5244 8.96459 11.9312 9.37791 11.9312H24.992C25.4053 11.9312 25.7414 11.5244 25.7414 11.0243V10.4544C25.7414 9.95428 25.4053 9.54743 24.992 9.54743H9.37791Z" fill="#313335"/>
<path d="M23.3961 27.2406H10.9743C10.1098 27.2406 9.40625 26.485 9.40625 25.5562V12.32C9.40625 12.1052 9.58039 11.9313 9.79496 11.9313H24.5751C24.7897 11.9313 24.9639 12.1052 24.9639 12.32V25.5562C24.9641 26.485 24.2606 27.2406 23.3961 27.2406ZM10.1837 12.7087V25.5562C10.1837 26.0564 10.5382 26.4632 10.9743 26.4632H23.3961C23.8322 26.4632 24.1867 26.0564 24.1867 25.5562V12.7087H10.1837Z" fill="#313335"/>
</svg>
