<svg width="13" height="12" viewBox="0 0 13 12" fill="none" xmlns="http://www.w3.org/2000/svg">
<path d="M12.5156 1.81889H10.3058V0.386997C10.3058 0.284359 10.2546 0.185925 10.1634 0.113349C10.0722 0.0407728 9.94852 0 9.81954 0H3.1824C3.05343 0 2.92973 0.0407728 2.83853 0.113349C2.74733 0.185925 2.69609 0.284359 2.69609 0.386997V1.81889H0.486309C0.357331 1.81889 0.233637 1.85966 0.142436 1.93223C0.0512359 2.00481 0 2.10324 0 2.20588C0 2.30852 0.0512359 2.40695 0.142436 2.47953C0.233637 2.55211 0.357331 2.59288 0.486309 2.59288H1.57953L2.1631 11.6331C2.1691 11.7321 2.22277 11.8254 2.31296 11.8937C2.40316 11.9621 2.52295 12.0001 2.64746 12H10.3525C10.4771 12.0001 10.5968 11.9621 10.687 11.8937C10.7772 11.8254 10.8309 11.7321 10.8369 11.6331L11.4205 2.59288H12.5137C12.6427 2.59288 12.7664 2.55211 12.8576 2.47953C12.9488 2.40695 13 2.30852 13 2.20588C13 2.10324 12.9488 2.00481 12.8576 1.93223C12.7664 1.85966 12.6427 1.81889 12.5137 1.81889H12.5156ZM5.82014 9.79102C5.82014 9.89366 5.7689 9.99209 5.6777 10.0647C5.5865 10.1372 5.46281 10.178 5.33383 10.178C5.20485 10.178 5.08116 10.1372 4.98996 10.0647C4.89876 9.99209 4.84752 9.89366 4.84752 9.79102V4.06347C4.84752 3.96083 4.89876 3.8624 4.98996 3.78982C5.08116 3.71724 5.20485 3.67647 5.33383 3.67647C5.46281 3.67647 5.5865 3.71724 5.6777 3.78982C5.7689 3.8624 5.82014 3.96083 5.82014 4.06347V9.79102ZM8.15442 9.79102C8.15442 9.89366 8.10319 9.99209 8.01198 10.0647C7.92078 10.1372 7.79709 10.178 7.66811 10.178C7.53914 10.178 7.41544 10.1372 7.32424 10.0647C7.23304 9.99209 7.1818 9.89366 7.1818 9.79102V4.06347C7.1818 3.96083 7.23304 3.8624 7.32424 3.78982C7.41544 3.71724 7.53914 3.67647 7.66811 3.67647C7.79709 3.67647 7.92078 3.71724 8.01198 3.78982C8.10319 3.8624 8.15442 3.96083 8.15442 4.06347V9.79102Z" fill="#DADADA"/>
</svg>
