<svg width="15" height="20" viewBox="0 0 15 20" fill="none" xmlns="http://www.w3.org/2000/svg">
<mask id="path-1-outside-1_1_845" maskUnits="userSpaceOnUse" x="0" y="0" width="15" height="20" fill="black">
<rect fill="white" width="15" height="20"/>
<path d="M1.2 18.9H13.7C13.753 18.9 13.8039 18.8789 13.8414 18.8414C13.8789 18.8039 13.9 18.753 13.9 18.7V14.95C13.9 11.912 12.018 9.79 9.326 9.79C9.29529 9.78953 9.26488 9.79614 9.23713 9.80932C9.20938 9.8225 9.18504 9.84189 9.166 9.866C8.85 10.284 8.21 10.55 7.512 10.564C6.776 10.578 6.112 10.316 5.728 9.86C5.70922 9.83805 5.68591 9.82042 5.65967 9.80834C5.63343 9.79625 5.60489 9.79 5.576 9.79C2.882 9.79 1 11.912 1 14.95V18.7C1 18.753 1.02107 18.8039 1.05858 18.8414C1.09609 18.8789 1.14696 18.9 1.2 18.9ZM7.52 10.964C7.99192 10.9609 8.45598 10.8428 8.872 10.62L7.45 14.384L6.022 10.604C6.48021 10.8557 6.99747 10.98 7.52 10.964ZM1.4 14.95C1.4 12.698 2.452 11.034 4.126 10.434V12.286C3.81858 12.334 3.53836 12.4901 3.33565 12.7262C3.13294 12.9622 3.02103 13.2628 3.02 13.574V15.67C3.02 15.723 3.04107 15.7739 3.07858 15.8114C3.11609 15.8489 3.16696 15.87 3.22 15.87H3.7V15.47H3.42V13.574C3.44554 13.3532 3.55134 13.1495 3.71729 13.0017C3.88323 12.8538 4.09774 12.7721 4.32 12.7721C4.54226 12.7721 4.75677 12.8538 4.92271 13.0017C5.08866 13.1495 5.19446 13.3532 5.22 13.574V15.47H4.95V15.87H5.43C5.48304 15.87 5.53391 15.8489 5.57142 15.8114C5.60893 15.7739 5.63 15.723 5.63 15.67V13.574C5.62905 13.2631 5.51742 12.9628 5.31511 12.7268C5.11281 12.4907 4.83306 12.3345 4.526 12.286V10.316C4.82459 10.2419 5.13044 10.201 5.438 10.194L7.262 15.02C7.27601 15.0586 7.30158 15.092 7.33521 15.1155C7.36885 15.1391 7.40893 15.1518 7.45 15.1518C7.49107 15.1518 7.53115 15.1391 7.56479 15.1155C7.59842 15.092 7.62399 15.0586 7.638 15.02L9.462 10.194C9.83052 10.2031 10.1963 10.2603 10.55 10.364V12.902C10.3522 12.9509 10.1791 13.0704 10.0635 13.2382C9.94777 13.4059 9.8975 13.6101 9.92211 13.8124C9.94672 14.0147 10.0445 14.2009 10.197 14.336C10.3496 14.4711 10.5463 14.5457 10.75 14.5457C10.9537 14.5457 11.1504 14.4711 11.303 14.336C11.4555 14.2009 11.5533 14.0147 11.5779 13.8124C11.6025 13.6101 11.5522 13.4059 11.4366 13.2382C11.3209 13.0704 11.1478 12.9509 10.95 12.902V10.502C12.522 11.15 13.5 12.778 13.5 14.95V18.5H1.4V14.95ZM10.75 13.276C10.8358 13.276 10.9197 13.3015 10.9911 13.3491C11.0625 13.3968 11.1181 13.4646 11.151 13.5439C11.1838 13.6232 11.1924 13.7105 11.1757 13.7947C11.1589 13.8789 11.1176 13.9562 11.0569 14.0169C10.9962 14.0776 10.9189 14.1189 10.8347 14.1357C10.7505 14.1524 10.6632 14.1438 10.5839 14.111C10.5046 14.0781 10.4368 14.0225 10.3891 13.9511C10.3415 13.8797 10.316 13.7958 10.316 13.71C10.316 13.5949 10.3617 13.4845 10.4431 13.4031C10.5245 13.3217 10.6349 13.276 10.75 13.276ZM4.104 6.116H4.174C4.30172 6.8927 4.70125 7.59875 5.3013 8.10818C5.90134 8.61761 6.66287 8.89727 7.45 8.89727C8.23713 8.89727 8.99866 8.61761 9.5987 8.10818C10.1987 7.59875 10.5983 6.8927 10.726 6.116H10.796C11.1219 6.116 11.4344 5.98669 11.665 5.75645C11.8956 5.52621 12.0255 5.21387 12.026 4.888V4.688C12.0255 4.48572 11.9447 4.29191 11.8015 4.14906C11.6583 4.00622 11.4643 3.926 11.262 3.926H10.776V2.888C10.7755 2.38743 10.5764 1.90752 10.2224 1.55357C9.86848 1.19961 9.38857 1.00053 8.888 1H6.012C5.51162 1.00053 5.03191 1.19968 4.67828 1.55369C4.32464 1.9077 4.126 2.38762 4.126 2.888V3.926H3.638C3.43607 3.92653 3.24256 4.00698 3.09977 4.14977C2.95698 4.29256 2.87653 4.48607 2.876 4.688V4.888C2.876 5.21369 3.00538 5.52603 3.23567 5.75633C3.46597 5.98662 3.77831 6.116 4.104 6.116ZM10.776 5.576V4.326H11.262C11.3582 4.326 11.4505 4.36407 11.5187 4.4319C11.5869 4.49974 11.6255 4.59181 11.626 4.688V4.888C11.6255 5.10778 11.5378 5.31838 11.3822 5.47361C11.2266 5.62883 11.0158 5.716 10.796 5.716H10.776V5.576ZM7.45 8.5C6.83062 8.49956 6.22735 8.30258 5.72705 7.93742C5.22676 7.57226 4.85524 7.05776 4.666 6.468C4.71 6.13 5.816 5.776 7.45 5.776C8.12318 5.76669 8.79494 5.84058 9.45 5.996C9.922 6.126 10.21 6.3 10.232 6.468C10.0429 7.05744 9.67165 7.5717 9.17175 7.93683C8.67186 8.30196 8.06904 8.49914 7.45 8.5ZM4.526 4.126V2.888C4.526 2.4937 4.6825 2.11553 4.96112 1.83653C5.23974 1.55753 5.6177 1.40053 6.012 1.4H8.888C9.28248 1.40053 9.66065 1.55747 9.93959 1.83641C10.2185 2.11535 10.3755 2.49352 10.376 2.888V4.516C10.2047 4.52266 10.0339 4.49356 9.87445 4.43054C9.71501 4.36753 9.57046 4.27198 9.45 4.15C9.098 3.75 9.204 3.112 9.206 3.108C9.21434 3.06362 9.20742 3.01772 9.18636 2.97778C9.16529 2.93783 9.13133 2.90619 9.09 2.888C9.04885 2.86984 9.00278 2.86609 8.95924 2.87734C8.91569 2.88859 8.87721 2.91418 8.85 2.95C7.918 4.166 5.192 4.45 4.522 4.502L4.526 4.126ZM4.526 4.908C5.126 4.866 7.556 4.634 8.806 3.576C8.8336 3.88301 8.95353 4.17447 9.15 4.412C9.30687 4.57822 9.49734 4.70913 9.70872 4.79603C9.92011 4.88293 10.1476 4.92382 10.376 4.916V5.576C10.3744 5.70983 10.3644 5.84342 10.346 5.976C9.792 5.546 8.546 5.376 7.45 5.376C6.354 5.376 5.108 5.538 4.554 5.976C4.53631 5.84338 4.52696 5.70979 4.526 5.576V4.908ZM3.276 4.688C3.276 4.59199 3.31414 4.49991 3.38203 4.43203C3.44992 4.36414 3.54199 4.326 3.638 4.326H4.126V5.726H4.104C3.8844 5.726 3.6738 5.63876 3.51852 5.48348C3.36324 5.3282 3.276 5.1176 3.276 4.898V4.688Z"/>
</mask>
<path d="M1.2 18.9H13.7C13.753 18.9 13.8039 18.8789 13.8414 18.8414C13.8789 18.8039 13.9 18.753 13.9 18.7V14.95C13.9 11.912 12.018 9.79 9.326 9.79C9.29529 9.78953 9.26488 9.79614 9.23713 9.80932C9.20938 9.8225 9.18504 9.84189 9.166 9.866C8.85 10.284 8.21 10.55 7.512 10.564C6.776 10.578 6.112 10.316 5.728 9.86C5.70922 9.83805 5.68591 9.82042 5.65967 9.80834C5.63343 9.79625 5.60489 9.79 5.576 9.79C2.882 9.79 1 11.912 1 14.95V18.7C1 18.753 1.02107 18.8039 1.05858 18.8414C1.09609 18.8789 1.14696 18.9 1.2 18.9ZM7.52 10.964C7.99192 10.9609 8.45598 10.8428 8.872 10.62L7.45 14.384L6.022 10.604C6.48021 10.8557 6.99747 10.98 7.52 10.964ZM1.4 14.95C1.4 12.698 2.452 11.034 4.126 10.434V12.286C3.81858 12.334 3.53836 12.4901 3.33565 12.7262C3.13294 12.9622 3.02103 13.2628 3.02 13.574V15.67C3.02 15.723 3.04107 15.7739 3.07858 15.8114C3.11609 15.8489 3.16696 15.87 3.22 15.87H3.7V15.47H3.42V13.574C3.44554 13.3532 3.55134 13.1495 3.71729 13.0017C3.88323 12.8538 4.09774 12.7721 4.32 12.7721C4.54226 12.7721 4.75677 12.8538 4.92271 13.0017C5.08866 13.1495 5.19446 13.3532 5.22 13.574V15.47H4.95V15.87H5.43C5.48304 15.87 5.53391 15.8489 5.57142 15.8114C5.60893 15.7739 5.63 15.723 5.63 15.67V13.574C5.62905 13.2631 5.51742 12.9628 5.31511 12.7268C5.11281 12.4907 4.83306 12.3345 4.526 12.286V10.316C4.82459 10.2419 5.13044 10.201 5.438 10.194L7.262 15.02C7.27601 15.0586 7.30158 15.092 7.33521 15.1155C7.36885 15.1391 7.40893 15.1518 7.45 15.1518C7.49107 15.1518 7.53115 15.1391 7.56479 15.1155C7.59842 15.092 7.62399 15.0586 7.638 15.02L9.462 10.194C9.83052 10.2031 10.1963 10.2603 10.55 10.364V12.902C10.3522 12.9509 10.1791 13.0704 10.0635 13.2382C9.94777 13.4059 9.8975 13.6101 9.92211 13.8124C9.94672 14.0147 10.0445 14.2009 10.197 14.336C10.3496 14.4711 10.5463 14.5457 10.75 14.5457C10.9537 14.5457 11.1504 14.4711 11.303 14.336C11.4555 14.2009 11.5533 14.0147 11.5779 13.8124C11.6025 13.6101 11.5522 13.4059 11.4366 13.2382C11.3209 13.0704 11.1478 12.9509 10.95 12.902V10.502C12.522 11.15 13.5 12.778 13.5 14.95V18.5H1.4V14.95ZM10.75 13.276C10.8358 13.276 10.9197 13.3015 10.9911 13.3491C11.0625 13.3968 11.1181 13.4646 11.151 13.5439C11.1838 13.6232 11.1924 13.7105 11.1757 13.7947C11.1589 13.8789 11.1176 13.9562 11.0569 14.0169C10.9962 14.0776 10.9189 14.1189 10.8347 14.1357C10.7505 14.1524 10.6632 14.1438 10.5839 14.111C10.5046 14.0781 10.4368 14.0225 10.3891 13.9511C10.3415 13.8797 10.316 13.7958 10.316 13.71C10.316 13.5949 10.3617 13.4845 10.4431 13.4031C10.5245 13.3217 10.6349 13.276 10.75 13.276ZM4.104 6.116H4.174C4.30172 6.8927 4.70125 7.59875 5.3013 8.10818C5.90134 8.61761 6.66287 8.89727 7.45 8.89727C8.23713 8.89727 8.99866 8.61761 9.5987 8.10818C10.1987 7.59875 10.5983 6.8927 10.726 6.116H10.796C11.1219 6.116 11.4344 5.98669 11.665 5.75645C11.8956 5.52621 12.0255 5.21387 12.026 4.888V4.688C12.0255 4.48572 11.9447 4.29191 11.8015 4.14906C11.6583 4.00622 11.4643 3.926 11.262 3.926H10.776V2.888C10.7755 2.38743 10.5764 1.90752 10.2224 1.55357C9.86848 1.19961 9.38857 1.00053 8.888 1H6.012C5.51162 1.00053 5.03191 1.19968 4.67828 1.55369C4.32464 1.9077 4.126 2.38762 4.126 2.888V3.926H3.638C3.43607 3.92653 3.24256 4.00698 3.09977 4.14977C2.95698 4.29256 2.87653 4.48607 2.876 4.688V4.888C2.876 5.21369 3.00538 5.52603 3.23567 5.75633C3.46597 5.98662 3.77831 6.116 4.104 6.116ZM10.776 5.576V4.326H11.262C11.3582 4.326 11.4505 4.36407 11.5187 4.4319C11.5869 4.49974 11.6255 4.59181 11.626 4.688V4.888C11.6255 5.10778 11.5378 5.31838 11.3822 5.47361C11.2266 5.62883 11.0158 5.716 10.796 5.716H10.776V5.576ZM7.45 8.5C6.83062 8.49956 6.22735 8.30258 5.72705 7.93742C5.22676 7.57226 4.85524 7.05776 4.666 6.468C4.71 6.13 5.816 5.776 7.45 5.776C8.12318 5.76669 8.79494 5.84058 9.45 5.996C9.922 6.126 10.21 6.3 10.232 6.468C10.0429 7.05744 9.67165 7.5717 9.17175 7.93683C8.67186 8.30196 8.06904 8.49914 7.45 8.5ZM4.526 4.126V2.888C4.526 2.4937 4.6825 2.11553 4.96112 1.83653C5.23974 1.55753 5.6177 1.40053 6.012 1.4H8.888C9.28248 1.40053 9.66065 1.55747 9.93959 1.83641C10.2185 2.11535 10.3755 2.49352 10.376 2.888V4.516C10.2047 4.52266 10.0339 4.49356 9.87445 4.43054C9.71501 4.36753 9.57046 4.27198 9.45 4.15C9.098 3.75 9.204 3.112 9.206 3.108C9.21434 3.06362 9.20742 3.01772 9.18636 2.97778C9.16529 2.93783 9.13133 2.90619 9.09 2.888C9.04885 2.86984 9.00278 2.86609 8.95924 2.87734C8.91569 2.88859 8.87721 2.91418 8.85 2.95C7.918 4.166 5.192 4.45 4.522 4.502L4.526 4.126ZM4.526 4.908C5.126 4.866 7.556 4.634 8.806 3.576C8.8336 3.88301 8.95353 4.17447 9.15 4.412C9.30687 4.57822 9.49734 4.70913 9.70872 4.79603C9.92011 4.88293 10.1476 4.92382 10.376 4.916V5.576C10.3744 5.70983 10.3644 5.84342 10.346 5.976C9.792 5.546 8.546 5.376 7.45 5.376C6.354 5.376 5.108 5.538 4.554 5.976C4.53631 5.84338 4.52696 5.70979 4.526 5.576V4.908ZM3.276 4.688C3.276 4.59199 3.31414 4.49991 3.38203 4.43203C3.44992 4.36414 3.54199 4.326 3.638 4.326H4.126V5.726H4.104C3.8844 5.726 3.6738 5.63876 3.51852 5.48348C3.36324 5.3282 3.276 5.1176 3.276 4.898V4.688Z" fill="black"/>
<path d="M1.2 18.9H13.7C13.753 18.9 13.8039 18.8789 13.8414 18.8414C13.8789 18.8039 13.9 18.753 13.9 18.7V14.95C13.9 11.912 12.018 9.79 9.326 9.79C9.29529 9.78953 9.26488 9.79614 9.23713 9.80932C9.20938 9.8225 9.18504 9.84189 9.166 9.866C8.85 10.284 8.21 10.55 7.512 10.564C6.776 10.578 6.112 10.316 5.728 9.86C5.70922 9.83805 5.68591 9.82042 5.65967 9.80834C5.63343 9.79625 5.60489 9.79 5.576 9.79C2.882 9.79 1 11.912 1 14.95V18.7C1 18.753 1.02107 18.8039 1.05858 18.8414C1.09609 18.8789 1.14696 18.9 1.2 18.9ZM7.52 10.964C7.99192 10.9609 8.45598 10.8428 8.872 10.62L7.45 14.384L6.022 10.604C6.48021 10.8557 6.99747 10.98 7.52 10.964ZM1.4 14.95C1.4 12.698 2.452 11.034 4.126 10.434V12.286C3.81858 12.334 3.53836 12.4901 3.33565 12.7262C3.13294 12.9622 3.02103 13.2628 3.02 13.574V15.67C3.02 15.723 3.04107 15.7739 3.07858 15.8114C3.11609 15.8489 3.16696 15.87 3.22 15.87H3.7V15.47H3.42V13.574C3.44554 13.3532 3.55134 13.1495 3.71729 13.0017C3.88323 12.8538 4.09774 12.7721 4.32 12.7721C4.54226 12.7721 4.75677 12.8538 4.92271 13.0017C5.08866 13.1495 5.19446 13.3532 5.22 13.574V15.47H4.95V15.87H5.43C5.48304 15.87 5.53391 15.8489 5.57142 15.8114C5.60893 15.7739 5.63 15.723 5.63 15.67V13.574C5.62905 13.2631 5.51742 12.9628 5.31511 12.7268C5.11281 12.4907 4.83306 12.3345 4.526 12.286V10.316C4.82459 10.2419 5.13044 10.201 5.438 10.194L7.262 15.02C7.27601 15.0586 7.30158 15.092 7.33521 15.1155C7.36885 15.1391 7.40893 15.1518 7.45 15.1518C7.49107 15.1518 7.53115 15.1391 7.56479 15.1155C7.59842 15.092 7.62399 15.0586 7.638 15.02L9.462 10.194C9.83052 10.2031 10.1963 10.2603 10.55 10.364V12.902C10.3522 12.9509 10.1791 13.0704 10.0635 13.2382C9.94777 13.4059 9.8975 13.6101 9.92211 13.8124C9.94672 14.0147 10.0445 14.2009 10.197 14.336C10.3496 14.4711 10.5463 14.5457 10.75 14.5457C10.9537 14.5457 11.1504 14.4711 11.303 14.336C11.4555 14.2009 11.5533 14.0147 11.5779 13.8124C11.6025 13.6101 11.5522 13.4059 11.4366 13.2382C11.3209 13.0704 11.1478 12.9509 10.95 12.902V10.502C12.522 11.15 13.5 12.778 13.5 14.95V18.5H1.4V14.95ZM10.75 13.276C10.8358 13.276 10.9197 13.3015 10.9911 13.3491C11.0625 13.3968 11.1181 13.4646 11.151 13.5439C11.1838 13.6232 11.1924 13.7105 11.1757 13.7947C11.1589 13.8789 11.1176 13.9562 11.0569 14.0169C10.9962 14.0776 10.9189 14.1189 10.8347 14.1357C10.7505 14.1524 10.6632 14.1438 10.5839 14.111C10.5046 14.0781 10.4368 14.0225 10.3891 13.9511C10.3415 13.8797 10.316 13.7958 10.316 13.71C10.316 13.5949 10.3617 13.4845 10.4431 13.4031C10.5245 13.3217 10.6349 13.276 10.75 13.276ZM4.104 6.116H4.174C4.30172 6.8927 4.70125 7.59875 5.3013 8.10818C5.90134 8.61761 6.66287 8.89727 7.45 8.89727C8.23713 8.89727 8.99866 8.61761 9.5987 8.10818C10.1987 7.59875 10.5983 6.8927 10.726 6.116H10.796C11.1219 6.116 11.4344 5.98669 11.665 5.75645C11.8956 5.52621 12.0255 5.21387 12.026 4.888V4.688C12.0255 4.48572 11.9447 4.29191 11.8015 4.14906C11.6583 4.00622 11.4643 3.926 11.262 3.926H10.776V2.888C10.7755 2.38743 10.5764 1.90752 10.2224 1.55357C9.86848 1.19961 9.38857 1.00053 8.888 1H6.012C5.51162 1.00053 5.03191 1.19968 4.67828 1.55369C4.32464 1.9077 4.126 2.38762 4.126 2.888V3.926H3.638C3.43607 3.92653 3.24256 4.00698 3.09977 4.14977C2.95698 4.29256 2.87653 4.48607 2.876 4.688V4.888C2.876 5.21369 3.00538 5.52603 3.23567 5.75633C3.46597 5.98662 3.77831 6.116 4.104 6.116ZM10.776 5.576V4.326H11.262C11.3582 4.326 11.4505 4.36407 11.5187 4.4319C11.5869 4.49974 11.6255 4.59181 11.626 4.688V4.888C11.6255 5.10778 11.5378 5.31838 11.3822 5.47361C11.2266 5.62883 11.0158 5.716 10.796 5.716H10.776V5.576ZM7.45 8.5C6.83062 8.49956 6.22735 8.30258 5.72705 7.93742C5.22676 7.57226 4.85524 7.05776 4.666 6.468C4.71 6.13 5.816 5.776 7.45 5.776C8.12318 5.76669 8.79494 5.84058 9.45 5.996C9.922 6.126 10.21 6.3 10.232 6.468C10.0429 7.05744 9.67165 7.5717 9.17175 7.93683C8.67186 8.30196 8.06904 8.49914 7.45 8.5ZM4.526 4.126V2.888C4.526 2.4937 4.6825 2.11553 4.96112 1.83653C5.23974 1.55753 5.6177 1.40053 6.012 1.4H8.888C9.28248 1.40053 9.66065 1.55747 9.93959 1.83641C10.2185 2.11535 10.3755 2.49352 10.376 2.888V4.516C10.2047 4.52266 10.0339 4.49356 9.87445 4.43054C9.71501 4.36753 9.57046 4.27198 9.45 4.15C9.098 3.75 9.204 3.112 9.206 3.108C9.21434 3.06362 9.20742 3.01772 9.18636 2.97778C9.16529 2.93783 9.13133 2.90619 9.09 2.888C9.04885 2.86984 9.00278 2.86609 8.95924 2.87734C8.91569 2.88859 8.87721 2.91418 8.85 2.95C7.918 4.166 5.192 4.45 4.522 4.502L4.526 4.126ZM4.526 4.908C5.126 4.866 7.556 4.634 8.806 3.576C8.8336 3.88301 8.95353 4.17447 9.15 4.412C9.30687 4.57822 9.49734 4.70913 9.70872 4.79603C9.92011 4.88293 10.1476 4.92382 10.376 4.916V5.576C10.3744 5.70983 10.3644 5.84342 10.346 5.976C9.792 5.546 8.546 5.376 7.45 5.376C6.354 5.376 5.108 5.538 4.554 5.976C4.53631 5.84338 4.52696 5.70979 4.526 5.576V4.908ZM3.276 4.688C3.276 4.59199 3.31414 4.49991 3.38203 4.43203C3.44992 4.36414 3.54199 4.326 3.638 4.326H4.126V5.726H4.104C3.8844 5.726 3.6738 5.63876 3.51852 5.48348C3.36324 5.3282 3.276 5.1176 3.276 4.898V4.688Z" stroke="black" stroke-width="0.4" mask="url(#path-1-outside-1_1_845)"/>
</svg>
