<svg width="17" height="17" viewBox="0 0 17 17" fill="none" xmlns="http://www.w3.org/2000/svg">
<path d="M11.2618 9.37052L11.2583 9.3691C11.2136 9.34998 11.1704 9.32802 11.1251 9.31031C11.6311 8.91372 12.0403 8.40729 12.3218 7.82932C12.6033 7.25135 12.7497 6.61694 12.75 5.97406C12.7483 5.82481 12.7376 5.67579 12.7181 5.52781C12.729 5.49964 12.738 5.47077 12.745 5.44139L12.9441 3.74352C13.0062 3.20698 12.8621 2.66688 12.5409 2.23261C12.2197 1.79835 11.7455 1.50236 11.2143 1.4046L10.6547 1.30331C9.23026 1.04318 7.77044 1.04318 6.34596 1.30331L5.78567 1.4046C5.25446 1.50236 4.78026 1.79835 4.4591 2.23261C4.13793 2.66688 3.99381 3.20698 4.05592 3.74352L4.25425 5.44139C4.26149 5.47079 4.27072 5.49966 4.28187 5.52781C4.26237 5.67579 4.25173 5.82481 4.25 5.97406C4.2503 6.61694 4.39674 7.25135 4.67824 7.82932C4.95974 8.40729 5.36894 8.91372 5.87492 9.31031C5.82958 9.32802 5.78637 9.34998 5.74175 9.3691L5.73821 9.37052C4.57862 9.85795 3.57064 10.6469 2.81893 11.6554C2.06722 12.664 1.59918 13.8554 1.46342 15.1059C1.44578 15.2912 1.50181 15.476 1.61939 15.6204C1.73697 15.7647 1.90664 15.8569 2.0917 15.8771C2.27677 15.8973 2.46234 15.8439 2.60829 15.7283C2.75424 15.6127 2.84882 15.4444 2.87158 15.2596C2.97127 14.3403 3.29587 13.4596 3.81672 12.6955C4.33757 11.9314 5.03862 11.3074 5.85792 10.8786L7.99921 13.0199C8.13204 13.1526 8.31218 13.2272 8.5 13.2272C8.68782 13.2272 8.86796 13.1526 9.00079 13.0199L11.1421 10.8786C11.9614 11.3074 12.6624 11.9314 13.1833 12.6955C13.7041 13.4596 14.0287 14.3403 14.1284 15.2596C14.1472 15.4329 14.2293 15.5932 14.359 15.7098C14.4886 15.8264 14.6567 15.8911 14.8311 15.8914C14.8571 15.8914 14.8831 15.89 14.909 15.8872C15.0015 15.8771 15.0912 15.8489 15.1728 15.8042C15.2544 15.7595 15.3264 15.6991 15.3847 15.6266C15.443 15.554 15.4864 15.4707 15.5125 15.3814C15.5385 15.292 15.5467 15.1984 15.5366 15.1059C15.4008 13.8553 14.9326 12.6639 14.1808 11.6553C13.4289 10.6467 12.4208 9.85785 11.2611 9.37052H11.2618ZM5.46267 3.57777C5.44209 3.399 5.49019 3.21908 5.59724 3.07443C5.70428 2.92978 5.86227 2.83119 6.03925 2.7986L6.59883 2.69731C7.85587 2.46759 9.14413 2.46759 10.4012 2.69731L10.9608 2.7986C11.1377 2.83119 11.2957 2.92978 11.4028 3.07443C11.5098 3.21908 11.5579 3.399 11.5373 3.57777L11.4113 4.65019H5.58875L5.46267 3.57777ZM8.5 11.5182L7.33125 10.3487C8.10162 10.1831 8.89838 10.1831 9.66875 10.3487L8.5 11.5182ZM8.5 8.8081C7.76475 8.80724 7.05856 8.52094 6.53027 8.00957C6.00198 7.49819 5.69287 6.80168 5.66808 6.06685H11.3319C11.3071 6.80168 10.998 7.49819 10.4697 8.00957C9.94144 8.52094 9.23525 8.80724 8.5 8.8081Z" fill="black"/>
</svg>
