<svg width="27" height="28" viewBox="0 0 27 28" fill="none" xmlns="http://www.w3.org/2000/svg">
<g clip-path="url(#clip0_1_3546)">
<path d="M25.5098 28.0001C26.3327 28.0001 27 27.3082 27 26.4547V1.54536C27 0.691797 26.3327 0 25.5098 0H1.49017C0.666984 0 0 0.691797 0 1.54536V26.4547C0 27.3082 0.666984 28.0001 1.49017 28.0001H25.5098Z" fill="#395185"/>
<path d="M18.6296 28.0005V17.1574H22.1392L22.6647 12.9317H18.6296V10.2336C18.6296 9.01015 18.9572 8.17638 20.6491 8.17638L22.8069 8.1754V4.39594C22.4335 4.34443 21.1527 4.22937 19.6626 4.22937C16.5515 4.22937 14.4217 6.19866 14.4217 9.81526V12.9317H10.903V17.1574H14.4217V28.0005H18.6296Z" fill="white"/>
</g>
<defs>
<clipPath id="clip0_1_3546">
<rect width="27" height="28" fill="white"/>
</clipPath>
</defs>
</svg>
