<svg width="25" height="25" viewBox="0 0 25 25" fill="none" xmlns="http://www.w3.org/2000/svg">
<path d="M14.2031 1.96484C14.2961 1.96484 14.3492 1.96875 14.3492 1.96875H16.389L16.3781 4.3125H14.3515C13.2367 4.3125 13.2617 5.26484 13.2617 5.26484V8.98047H17.2078L16.657 11.3211H13.2484V23.0344H10.907L10.9055 11.3211H7.79452L7.78827 8.98047H10.9062V5.33828C10.907 2.1625 13.5445 1.96484 14.2008 1.96484H14.2031ZM14.2031 0.402344C13.6414 0.402344 12.5437 0.495313 11.5039 1.12188C10.5195 1.71406 9.34686 2.92734 9.34686 5.3375V7.41719H7.79139C7.37655 7.41719 6.97811 7.58281 6.68436 7.87656C6.39139 8.17109 6.22733 8.56875 6.22889 8.98516L6.23514 11.3258C6.23827 12.1859 6.93749 12.8828 7.79764 12.8828H9.34608L9.34764 23.0336C9.34764 23.8969 10.0476 24.5961 10.9101 24.5961H13.2515C14.1148 24.5961 14.814 23.8969 14.814 23.0336V12.8828H16.6601C17.3531 12.8828 17.964 12.4258 18.1594 11.7602L18.7101 9.41953C18.8484 8.94766 18.7562 8.43672 18.4609 8.04375C18.1664 7.64922 17.7023 7.41719 17.2101 7.41719H14.8265V5.87578L16.3797 5.875C17.2398 5.875 17.9383 5.18047 17.9422 4.31953L17.9531 2.05547C17.9547 2.02656 17.9555 1.99844 17.9555 1.96875C17.9555 1.10547 17.2578 0.40625 16.3945 0.40625H14.3937C14.3484 0.403906 14.2844 0.402344 14.2031 0.402344Z" fill="#188DFF"/>
</svg>
