<svg width="24" height="22" viewBox="0 0 24 22" fill="none" xmlns="http://www.w3.org/2000/svg">
<path d="M22.816 12.2548C21.6285 11.0674 19.5929 11.0674 18.4903 12.2548L17.8117 12.9334L17.1332 12.2548C15.9457 11.0674 13.9101 11.0674 12.8075 12.2548C11.62 13.4423 11.62 15.4779 12.8075 16.6654L17.218 21.2455C17.3876 21.4152 17.5573 21.5 17.8117 21.5C18.0662 21.5 18.2358 21.4152 18.4054 21.2455L22.816 16.6654C24.0034 15.4779 24.0034 13.4423 22.816 12.2548Z" fill="#188DFF"/>
<path d="M11.5352 11.0674C12.3834 10.1344 13.6557 9.6255 14.9279 9.6255C15.9458 9.6255 16.9636 9.96477 17.8117 10.5585C18.6599 9.96477 19.5929 9.6255 20.6956 9.6255C21.2045 9.6255 21.6286 9.71031 22.0526 9.79513V4.53642C22.0526 2.16152 20.1866 0.295532 17.8117 0.295532H4.24089C1.86599 0.295532 0 2.16152 0 4.53642V20.6518C0 20.9911 0.169636 21.2455 0.508907 21.4152C0.593725 21.5 0.763361 21.5 0.848179 21.5C1.01781 21.5 1.27227 21.4152 1.4419 21.3304C4.15607 19.0403 7.37915 17.5136 10.8567 16.835C9.83887 14.969 10.0085 12.5941 11.5352 11.0674ZM6.78543 6.23278H11.8745C12.3834 6.23278 12.7227 6.57205 12.7227 7.08096C12.7227 7.58987 12.3834 7.92914 11.8745 7.92914H6.78543C6.27652 7.92914 5.93725 7.58987 5.93725 7.08096C5.93725 6.57205 6.27652 6.23278 6.78543 6.23278ZM9.32996 11.3219H6.78543C6.27652 11.3219 5.93725 10.9826 5.93725 10.4737C5.93725 9.96477 6.27652 9.6255 6.78543 9.6255H9.32996C9.83887 9.6255 10.1781 9.96477 10.1781 10.4737C10.1781 10.9826 9.83887 11.3219 9.32996 11.3219Z" fill="white"/>
</svg>
