<svg width="22" height="19" viewBox="0 0 22 19" fill="none" xmlns="http://www.w3.org/2000/svg">
<path d="M17.9852 4.6933C17.9852 6.85709 16.2307 8.60922 14.067 8.60922C11.9055 8.60922 10.1487 6.85709 10.1487 4.6933C10.1487 2.52722 11.9055 0.772705 14.067 0.772705C16.2307 0.772705 17.9852 2.52722 17.9852 4.6933Z" fill="#005AB1"/>
<path d="M21.3437 16.942V16.133C21.3437 12.1136 18.0863 8.8562 14.0669 8.8562C10.0475 8.8562 6.79248 12.1136 6.79248 16.133V16.942H21.3437Z" fill="#005AB1"/>
<path d="M12.6559 9.3078C13.6695 8.37878 14.3115 7.05466 14.3115 5.57532C14.3115 2.76251 12.0279 0.47876 9.21738 0.47876C6.4068 0.47876 4.12323 2.76251 4.12323 5.57532C4.12323 7.05466 4.76523 8.37878 5.77887 9.3078C2.83197 10.632 0.764648 13.5812 0.764648 17.015V19H17.6701V17.015C17.6701 13.5812 15.6028 10.632 12.6559 9.3078ZM9.21738 2.83069C10.7296 2.83069 11.9597 4.06073 11.9597 5.57532C11.9597 7.08521 10.7296 8.31528 9.21738 8.31528C7.70505 8.31528 6.47507 7.08521 6.47507 5.57532C6.47507 4.06073 7.70505 2.83069 9.21738 2.83069ZM3.1283 16.6481C3.31882 13.4542 5.97647 10.9142 9.21738 10.9142C12.4583 10.9142 15.1159 13.4542 15.3064 16.6481H3.1283Z" fill="#188DFF"/>
<path d="M13.1357 5.57526C13.1357 7.73901 11.3813 9.49118 9.21759 9.49118C7.05377 9.49118 5.29932 7.73901 5.29932 5.57526C5.29932 3.40915 7.05377 1.65466 9.21759 1.65466C11.3813 1.65466 13.1357 3.40915 13.1357 5.57526Z" fill="#188DFF"/>
<path d="M16.4942 17.824V17.0149C16.4942 12.9955 13.2368 9.73816 9.21744 9.73816C5.19803 9.73816 1.94067 12.9955 1.94067 17.0149V17.824H16.4942Z" fill="#188DFF"/>
</svg>
