<svg width="27" height="28" viewBox="0 0 27 28" fill="none" xmlns="http://www.w3.org/2000/svg">
<g clip-path="url(#clip0_1_3549)">
<path d="M5.92427 11.3925C6.45064 9.74102 7.46649 8.30411 8.8269 7.28676C10.1873 6.26941 11.8228 5.72359 13.5 5.72717C15.4013 5.72717 17.1203 6.42717 18.4703 7.57283L22.3988 3.5C20.0048 1.33583 16.9369 0 13.5 0C8.17877 0 3.59777 3.14767 1.39502 7.75833L5.92427 11.3925Z" fill="#EA4335"/>
<path d="M18.045 21.0152C16.8187 21.8353 15.2617 22.2728 13.5 22.2728C11.8294 22.2764 10.2001 21.7349 8.84274 20.7251C7.48536 19.7152 6.46866 18.2882 5.9366 16.646L1.3916 20.2242C2.50675 22.5648 4.23253 24.5343 6.3729 25.9088C8.51328 27.2833 10.9825 28.0078 13.5 28C16.7996 28 19.9519 26.7832 22.3132 24.5L18.0461 21.0152H18.045Z" fill="#34A853"/>
<path d="M22.3132 24.5C24.7826 22.1107 26.3858 18.5547 26.3858 14C26.3858 13.1717 26.2631 12.2815 26.0797 11.4543H13.5V16.8642H20.7405C20.3839 18.683 19.4243 20.0912 18.0461 21.0152L22.3132 24.5Z" fill="#4A90E2"/>
<path d="M5.93669 16.646C5.66147 15.7931 5.52165 14.8994 5.52269 14C5.52269 13.0877 5.66332 12.2115 5.92432 11.3925L1.39507 7.75834C0.468495 9.69814 -0.00915097 11.8353 6.99762e-05 14C6.99762e-05 16.24 0.500695 18.3517 1.3917 20.2242L5.93669 16.646Z" fill="#FBBC05"/>
</g>
<defs>
<clipPath id="clip0_1_3549">
<rect width="27" height="28" fill="white"/>
</clipPath>
</defs>
</svg>
