<svg width="26" height="25" viewBox="0 0 26 25" fill="none" xmlns="http://www.w3.org/2000/svg">
<path d="M12.4478 5.91216L12.8482 6.44729L13.2486 5.91216C14.1992 4.64146 15.7228 3.81506 17.4227 3.81506C20.3073 3.81506 22.6512 6.16462 22.6512 9.07446C22.6512 10.2461 22.4643 11.3276 22.1397 12.3308L22.1387 12.3341C21.3606 14.7966 19.7662 16.7807 18.046 18.259C16.3237 19.7393 14.5039 20.6876 13.3259 21.0884L13.3259 21.0883L13.3206 21.0902C13.2156 21.1273 13.0443 21.1545 12.8482 21.1545C12.6521 21.1545 12.4808 21.1273 12.3758 21.0902L12.3758 21.0902L12.3705 21.0884C11.1925 20.6876 9.37274 19.7393 7.65038 18.259C5.93022 16.7807 4.33582 14.7966 3.55769 12.3341L3.5577 12.3341L3.55665 12.3308C3.23206 11.3276 3.04517 10.2461 3.04517 9.07446C3.04517 6.16462 5.3891 3.81506 8.27365 3.81506C9.97359 3.81506 11.4972 4.64146 12.4478 5.91216Z" stroke="black"/>
</svg>
