<svg width="24" height="24" viewBox="0 0 24 24" fill="none" xmlns="http://www.w3.org/2000/svg">
<path d="M10.07 2.81991L3.14002 8.36989C2.36002 8.98989 1.86002 10.2999 2.03002 11.2799L3.36002 19.2399C3.60002 20.6599 4.96002 21.8099 6.40002 21.8099H17.6C19.03 21.8099 20.4 20.6499 20.64 19.2399L21.97 11.2799C22.13 10.2999 21.63 8.98989 20.86 8.36989L13.93 2.82992C12.86 1.96992 11.13 1.96991 10.07 2.81991Z" stroke="#292D32" stroke-width="1.5" stroke-linecap="round" stroke-linejoin="round"/>
<path opacity="0.4" d="M14.5 12.9999C14.5 14.3806 13.3807 15.4999 12 15.4999C10.6193 15.4999 9.5 14.3806 9.5 12.9999C9.5 11.6192 10.6193 10.4999 12 10.4999C13.3807 10.4999 14.5 11.6192 14.5 12.9999Z" stroke="#292D32" stroke-width="1.5" stroke-linecap="round" stroke-linejoin="round"/>
</svg>
