<svg width="12" height="12" viewBox="0 0 12 12" fill="none" xmlns="http://www.w3.org/2000/svg">
<path d="M5.95833 8.125H5.41667C5.27301 8.125 5.13523 8.18207 5.03365 8.28365C4.93207 8.38523 4.875 8.52301 4.875 8.66667C4.875 8.81033 4.93207 8.9481 5.03365 9.04968C5.13523 9.15127 5.27301 9.20833 5.41667 9.20833H5.95833C6.10199 9.20833 6.23977 9.15127 6.34135 9.04968C6.44293 8.9481 6.5 8.81033 6.5 8.66667C6.5 8.52301 6.44293 8.38523 6.34135 8.28365C6.23977 8.18207 6.10199 8.125 5.95833 8.125ZM5.95833 5.95833H5.41667C5.27301 5.95833 5.13523 6.0154 5.03365 6.11698C4.93207 6.21857 4.875 6.35634 4.875 6.5C4.875 6.64366 4.93207 6.78143 5.03365 6.88302C5.13523 6.9846 5.27301 7.04167 5.41667 7.04167H5.95833C6.10199 7.04167 6.23977 6.9846 6.34135 6.88302C6.44293 6.78143 6.5 6.64366 6.5 6.5C6.5 6.35634 6.44293 6.21857 6.34135 6.11698C6.23977 6.0154 6.10199 5.95833 5.95833 5.95833ZM3.25 8.125H2.70833C2.56467 8.125 2.4269 8.18207 2.32532 8.28365C2.22374 8.38523 2.16667 8.52301 2.16667 8.66667C2.16667 8.81033 2.22374 8.9481 2.32532 9.04968C2.4269 9.15127 2.56467 9.20833 2.70833 9.20833H3.25C3.39366 9.20833 3.53143 9.15127 3.63302 9.04968C3.7346 8.9481 3.79167 8.81033 3.79167 8.66667C3.79167 8.52301 3.7346 8.38523 3.63302 8.28365C3.53143 8.18207 3.39366 8.125 3.25 8.125ZM3.25 5.95833H2.70833C2.56467 5.95833 2.4269 6.0154 2.32532 6.11698C2.22374 6.21857 2.16667 6.35634 2.16667 6.5C2.16667 6.64366 2.22374 6.78143 2.32532 6.88302C2.4269 6.9846 2.56467 7.04167 2.70833 7.04167H3.25C3.39366 7.04167 3.53143 6.9846 3.63302 6.88302C3.7346 6.78143 3.79167 6.64366 3.79167 6.5C3.79167 6.35634 3.7346 6.21857 3.63302 6.11698C3.53143 6.0154 3.39366 5.95833 3.25 5.95833ZM10.8333 2.70833H9.20833V0.541667C9.20833 0.398008 9.15127 0.260233 9.04968 0.15865C8.9481 0.0570683 8.81033 0 8.66667 0H2.70833C2.56467 0 2.4269 0.0570683 2.32532 0.15865C2.22374 0.260233 2.16667 0.398008 2.16667 0.541667V2.70833H0.541667C0.398008 2.70833 0.260233 2.7654 0.15865 2.86698C0.0570683 2.96857 0 3.10634 0 3.25V10.8333C0 10.977 0.0570683 11.1148 0.15865 11.2164C0.260233 11.3179 0.398008 11.375 0.541667 11.375H10.8333C10.977 11.375 11.1148 11.3179 11.2164 11.2164C11.3179 11.1148 11.375 10.977 11.375 10.8333V3.25C11.375 3.10634 11.3179 2.96857 11.2164 2.86698C11.1148 2.7654 10.977 2.70833 10.8333 2.70833ZM10.2917 10.2917H1.08333V3.79167H2.70833C2.85199 3.79167 2.98977 3.7346 3.09135 3.63302C3.19293 3.53143 3.25 3.39366 3.25 3.25V1.08333H8.125V3.25C8.125 3.39366 8.18207 3.53143 8.28365 3.63302C8.38523 3.7346 8.52301 3.79167 8.66667 3.79167H10.2917V10.2917ZM8.125 5.95833C7.98134 5.95833 7.84357 6.0154 7.74198 6.11698C7.6404 6.21857 7.58333 6.35634 7.58333 6.5C7.58333 6.64366 7.6404 6.78143 7.74198 6.88302C7.84357 6.9846 7.98134 7.04167 8.125 7.04167H8.66667C8.81033 7.04167 8.9481 6.9846 9.04968 6.88302C9.15127 6.78143 9.20833 6.64366 9.20833 6.5C9.20833 6.35634 9.15127 6.21857 9.04968 6.11698C8.9481 6.0154 8.81033 5.95833 8.66667 5.95833H8.125ZM6.5 2.97917H6.22917V2.70833C6.22917 2.56467 6.1721 2.4269 6.07052 2.32532C5.96893 2.22374 5.83116 2.16667 5.6875 2.16667C5.54384 2.16667 5.40607 2.22374 5.30448 2.32532C5.2029 2.4269 5.14583 2.56467 5.14583 2.70833V2.97917H4.875C4.73134 2.97917 4.59357 3.03624 4.49198 3.13782C4.3904 3.2394 4.33333 3.37717 4.33333 3.52083C4.33333 3.66449 4.3904 3.80227 4.49198 3.90385C4.59357 4.00543 4.73134 4.0625 4.875 4.0625H5.14583V4.33333C5.14583 4.47699 5.2029 4.61477 5.30448 4.71635C5.40607 4.81793 5.54384 4.875 5.6875 4.875C5.83116 4.875 5.96893 4.81793 6.07052 4.71635C6.1721 4.61477 6.22917 4.47699 6.22917 4.33333V4.0625H6.5C6.64366 4.0625 6.78143 4.00543 6.88302 3.90385C6.9846 3.80227 7.04167 3.66449 7.04167 3.52083C7.04167 3.37717 6.9846 3.2394 6.88302 3.13782C6.78143 3.03624 6.64366 2.97917 6.5 2.97917ZM8.66667 8.125H8.125C7.98134 8.125 7.84357 8.18207 7.74198 8.28365C7.6404 8.38523 7.58333 8.52301 7.58333 8.66667C7.58333 8.81033 7.6404 8.9481 7.74198 9.04968C7.84357 9.15127 7.98134 9.20833 8.125 9.20833H8.66667C8.81033 9.20833 8.9481 9.15127 9.04968 9.04968C9.15127 8.9481 9.20833 8.81033 9.20833 8.66667C9.20833 8.52301 9.15127 8.38523 9.04968 8.28365C8.9481 8.18207 8.81033 8.125 8.66667 8.125Z" fill="white"/>
</svg>
