<svg width="19" height="19" viewBox="0 0 19 19" fill="none" xmlns="http://www.w3.org/2000/svg">
<path d="M15.2297 3.02808H3.77031V3.79995H15.2297V3.02808Z" fill="black"/>
<path d="M15.2297 18.4062H3.8V19H15.2297V18.4062Z" fill="black"/>
<path d="M13.0031 5.69995H12.0531V6.7687H13.0031V5.69995Z" fill="black"/>
<path d="M10.7766 15.5563V17.7828H8.19375V15.5563C8.19375 14.8438 8.7875 14.25 9.5 14.25C10.2125 14.25 10.7766 14.8438 10.7766 15.5563Z" fill="black"/>
<path d="M4.60156 4.42334V17.7827H7.6V15.5562C7.6 14.4874 8.46094 13.6562 9.5 13.6562C10.5687 13.6562 11.4 14.5171 11.4 15.5562V17.7827H14.3984V4.42334H4.60156ZM7.57031 12.7062C7.57031 12.8843 7.42188 13.003 7.27344 13.003H5.7C5.52188 13.003 5.40313 12.8546 5.40313 12.7062V11.014C5.40313 10.8358 5.55156 10.7171 5.7 10.7171H7.27344C7.45156 10.7171 7.57031 10.8655 7.57031 11.014V12.7062ZM7.57031 9.88584C7.57031 10.064 7.42188 10.1827 7.27344 10.1827H5.7C5.52188 10.1827 5.40313 10.0343 5.40313 9.88584V8.19365C5.40313 8.01553 5.55156 7.89678 5.7 7.89678H7.27344C7.45156 7.89678 7.57031 8.04522 7.57031 8.19365V9.88584ZM7.57031 7.06553C7.57031 7.24365 7.42188 7.3624 7.27344 7.3624H5.7C5.52188 7.3624 5.40313 7.21396 5.40313 7.06553V5.37334C5.40313 5.19522 5.55156 5.07647 5.7 5.07647H7.27344C7.45156 5.07647 7.57031 5.2249 7.57031 5.37334V7.06553ZM10.5984 12.7062C10.5984 12.8843 10.45 13.003 10.3016 13.003H8.72813C8.55 13.003 8.43125 12.8546 8.43125 12.7062V11.014C8.43125 10.8358 8.57969 10.7171 8.72813 10.7171H10.3016C10.4797 10.7171 10.5984 10.8655 10.5984 11.014V12.7062ZM10.5984 9.88584C10.5984 10.064 10.45 10.1827 10.3016 10.1827H8.72813C8.55 10.1827 8.43125 10.0343 8.43125 9.88584V8.19365C8.43125 8.01553 8.57969 7.89678 8.72813 7.89678H10.3016C10.4797 7.89678 10.5984 8.04522 10.5984 8.19365V9.88584ZM10.5984 7.06553C10.5984 7.24365 10.45 7.3624 10.3016 7.3624H8.72813C8.55 7.3624 8.43125 7.21396 8.43125 7.06553V5.37334C8.43125 5.19522 8.57969 5.07647 8.72813 5.07647H10.3016C10.4797 5.07647 10.5984 5.2249 10.5984 5.37334V7.06553ZM13.6266 12.7062C13.6266 12.8843 13.4781 13.003 13.3297 13.003H11.7562C11.5781 13.003 11.4594 12.8546 11.4594 12.7062V11.014C11.4594 10.8358 11.6078 10.7171 11.7562 10.7171H13.3297C13.5078 10.7171 13.6266 10.8655 13.6266 11.014V12.7062ZM13.6266 9.88584C13.6266 10.064 13.4781 10.1827 13.3297 10.1827H11.7562C11.5781 10.1827 11.4594 10.0343 11.4594 9.88584V8.19365C11.4594 8.01553 11.6078 7.89678 11.7562 7.89678H13.3297C13.5078 7.89678 13.6266 8.04522 13.6266 8.19365V9.88584ZM13.6266 7.06553C13.6266 7.24365 13.4781 7.3624 13.3297 7.3624H11.7562C11.5781 7.3624 11.4594 7.21396 11.4594 7.06553V5.37334C11.4594 5.19522 11.6078 5.07647 11.7562 5.07647H13.3297C13.5078 5.07647 13.6266 5.2249 13.6266 5.37334V7.06553Z" fill="black"/>
<path d="M6.94687 5.69995H5.99687V6.7687H6.94687V5.69995Z" fill="black"/>
<path d="M9.975 5.69995H9.025V6.7687H9.975V5.69995Z" fill="black"/>
<path d="M6.94687 8.52026H5.99687V9.58901H6.94687V8.52026Z" fill="black"/>
<path d="M9.975 8.52026H9.025V9.58901H9.975V8.52026Z" fill="black"/>
<path d="M13.0031 8.52026H12.0531V9.58901H13.0031V8.52026Z" fill="black"/>
<path d="M6.94687 11.3406H5.99687V12.4093H6.94687V11.3406Z" fill="black"/>
<path d="M9.975 11.3406H9.025V12.4093H9.975V11.3406Z" fill="black"/>
<path d="M13.0031 11.3406H12.0531V12.4093H13.0031V11.3406Z" fill="black"/>
<path d="M13.7453 1.54375L13.8938 2.40469L13.1219 1.98906L12.35 2.40469L12.4984 1.54375L11.8453 0.920312L12.7359 0.801562L13.1219 0L13.5078 0.801562L14.3984 0.920312L13.7453 1.54375Z" fill="black"/>
<path d="M13.7453 1.54375L13.8938 2.40469L13.1219 1.98906L12.35 2.40469L12.4984 1.54375L11.8453 0.920312L12.7359 0.801562L13.1219 0L13.5078 0.801562L14.3984 0.920312L13.7453 1.54375Z" fill="black"/>
<path d="M10.1234 1.54375L10.2719 2.40469L9.5 1.98906L8.72812 2.40469L8.84687 1.69219L8.87656 1.54375L8.22343 0.920312L9.11406 0.801562L9.5 0L9.88593 0.801562L10.7766 0.920312L10.1234 1.54375Z" fill="black"/>
<path d="M10.1234 1.54375L10.2719 2.40469L9.5 1.98906L8.72812 2.40469L8.84687 1.69219L8.87656 1.54375L8.22343 0.920312L9.11406 0.801562L9.5 0L9.88593 0.801562L10.7766 0.920312L10.1234 1.54375Z" fill="black"/>
<path d="M6.50156 1.54375L6.65 2.40469L5.87812 1.98906L5.10625 2.40469L5.25469 1.54375L4.60156 0.920312L5.49219 0.801562L5.87812 0L6.26406 0.801562L7.15469 0.920312L6.50156 1.54375Z" fill="black"/>
<path d="M6.50156 1.54375L6.65 2.40469L5.87812 1.98906L5.10625 2.40469L5.25469 1.54375L4.60156 0.920312L5.49219 0.801562L5.87812 0L6.26406 0.801562L7.15469 0.920312L6.50156 1.54375Z" fill="black"/>
</svg>
