<svg width="66" height="20" viewBox="0 0 66 20" fill="none" xmlns="http://www.w3.org/2000/svg">
<path d="M66 0H61.7524L53.6074 6.84594V4.96799C53.6074 3.45027 52.377 2.22005 50.8592 2.22005L50.8589 12.1429L66 0Z" fill="#051336"/>
<path d="M53.6072 11.6932L50.8589 13.8586V19.4885H53.6072V11.6932Z" fill="#051336"/>
<rect y="0.133301" width="2.23181" height="19.29" fill="#051336"/>
<path d="M24.2317 10.7416V19.4233H21.9999V11.2132C21.9999 9.67223 20.7507 8.42322 19.21 8.42322C17.6691 8.42322 16.4202 9.67223 16.4202 11.2132V19.4233H14.1882V0.133301H16.4202V8.42322C17.1194 6.98274 18.2065 6.23866 19.6814 6.19141C22.1945 6.19141 24.2317 8.22844 24.2317 10.7416Z" fill="#051336"/>
<path d="M45.116 6.66957V7.98482C43.9411 6.96602 42.4092 6.35065 40.732 6.35065C37.0334 6.35065 34.0364 9.34783 34.0364 13.0463C34.0364 16.7449 37.0334 19.742 40.732 19.742C42.4092 19.742 43.9411 19.1267 45.116 18.108V19.4233H47.348V6.66957H45.116ZM40.732 17.271C38.3981 17.271 36.5074 15.3803 36.5074 13.0463C36.5074 10.7124 38.3981 8.82182 40.732 8.82182C43.066 8.82182 44.9567 10.7124 44.9567 13.0463C44.9567 15.3803 43.066 17.271 40.732 17.271Z" fill="#051336"/>
<path d="M30.4748 9.37965V15.4234C30.4748 16.2156 30.6199 16.7003 30.8719 16.9601C31.1571 17.2535 32.0594 17.3189 32.8406 17.3157V19.5858C32.5059 19.5858 32.1871 19.5874 32.0085 19.5874C31.417 19.5874 30.8989 19.5139 30.4493 19.3657C30.0507 19.2366 29.7065 19.05 29.4132 18.803C28.7036 18.2052 28.3099 17.2965 28.2174 16.034V9.37965H25.5073V7.14784H28.2174V2.3653H30.4493V7.14784H32.8406V9.37965H30.4748Z" fill="#051336"/>
<path d="M9.53823 9.7784L11.821 8.82198C10.8731 6.95862 9.22455 6.09279 7.5319 6.80917C5.55282 7.64669 4.9406 10.1304 6.16188 11.8985C6.71421 12.6983 7.55228 13.4365 8.68346 14.1115C10.1125 14.9949 10.2751 16.2131 9.42811 16.8579C9.00362 17.1809 8.42934 17.2534 7.93039 17.065C7.38333 16.8584 7.00662 16.4352 7.01451 15.9161L4.78271 16.7132C5.81889 20.1406 9.645 20.4596 11.6378 17.9886C12.4153 16.958 12.6989 15.9094 12.4771 14.8423C12.2814 13.9004 11.695 13.0854 10.8996 12.5447L8.16344 10.6839C7.70208 10.3703 7.6429 9.68218 8.08213 9.33778C8.50204 9.00849 9.13236 9.16164 9.53823 9.7784Z" fill="#051336"/>
</svg>
