<svg width="41" height="41" viewBox="0 0 41 41" fill="none" xmlns="http://www.w3.org/2000/svg">
<path d="M20.5 3.41663C17.1212 3.41663 13.8183 4.41855 11.009 6.29569C8.19964 8.17283 6.01002 10.8409 4.71702 13.9625C3.42403 17.084 3.08572 20.5189 3.74489 23.8328C4.40405 27.1466 6.03108 30.1906 8.42023 32.5797C10.8094 34.9688 13.8533 36.5959 17.1672 37.255C20.481 37.9142 23.9159 37.5759 27.0375 36.2829C30.159 34.9899 32.8271 32.8003 34.7042 29.9909C36.5814 27.1816 37.5833 23.8787 37.5833 20.5C37.5833 18.2565 37.1414 16.0351 36.2829 13.9625C35.4244 11.8898 34.166 10.0066 32.5797 8.42022C30.9934 6.83388 29.1101 5.57554 27.0375 4.71702C24.9648 3.8585 22.7434 3.41663 20.5 3.41663ZM20.5 34.1666C17.797 34.1666 15.1546 33.3651 12.9072 31.8634C10.6597 30.3617 8.90801 28.2272 7.87361 25.73C6.83922 23.2327 6.56857 20.4848 7.0959 17.8337C7.62323 15.1827 8.92486 12.7475 10.8362 10.8362C12.7475 8.92485 15.1827 7.62323 17.8337 7.09589C20.4848 6.56856 23.2327 6.83921 25.73 7.87361C28.2272 8.908 30.3617 10.6597 31.8634 12.9072C33.3651 15.1546 34.1666 17.7969 34.1666 20.5C34.1666 24.1246 32.7268 27.6008 30.1638 30.1638C27.6008 32.7267 24.1246 34.1666 20.5 34.1666Z" fill="#188DFF"/>
<path d="M25.625 18.7916H22.2083V15.375C22.2083 14.9219 22.0283 14.4874 21.7079 14.167C21.3876 13.8466 20.953 13.6666 20.5 13.6666C20.0469 13.6666 19.6124 13.8466 19.292 14.167C18.9716 14.4874 18.7916 14.9219 18.7916 15.375V18.7916H15.375C14.9219 18.7916 14.4874 18.9716 14.167 19.292C13.8466 19.6124 13.6666 20.0469 13.6666 20.5C13.6666 20.953 13.8466 21.3876 14.167 21.7079C14.4874 22.0283 14.9219 22.2083 15.375 22.2083H18.7916V25.625C18.7916 26.078 18.9716 26.5126 19.292 26.8329C19.6124 27.1533 20.0469 27.3333 20.5 27.3333C20.953 27.3333 21.3876 27.1533 21.7079 26.8329C22.0283 26.5126 22.2083 26.078 22.2083 25.625V22.2083H25.625C26.078 22.2083 26.5126 22.0283 26.8329 21.7079C27.1533 21.3876 27.3333 20.953 27.3333 20.5C27.3333 20.0469 27.1533 19.6124 26.8329 19.292C26.5126 18.9716 26.078 18.7916 25.625 18.7916Z" fill="#188DFF"/>
</svg>
