<svg width="95" height="98" viewBox="0 0 95 98" fill="none" xmlns="http://www.w3.org/2000/svg">
<path d="M0 17.0001C0 7.61128 7.61116 0.00012207 17 0.00012207H78C87.3888 0.00012207 95 7.61128 95 17.0001V81.0001C95 90.389 87.3888 98.0001 78 98.0001H17C7.61116 98.0001 0 90.389 0 81.0001V17.0001Z" fill="url(#paint0_linear_1_2789)"/>
<path d="M89.7175 37.7496H85.1095L76.2734 45.1764V43.1391C76.2734 41.4926 74.9387 40.158 73.2921 40.158L73.2917 50.9228L89.7175 37.7496Z" fill="#051336"/>
<path d="M76.2736 50.4349L73.292 52.7841V58.8916H76.2736V50.4349Z" fill="white"/>
<rect x="18.1182" y="37.8944" width="2.42116" height="20.9266" fill="white"/>
<path d="M44.4058 49.4027V58.8209H41.9847V49.9143C41.9847 48.2426 40.6294 46.8877 38.9579 46.8877C37.2864 46.8877 35.9316 48.2426 35.9316 49.9143V58.8209H33.5103V37.8944H35.9316V46.8877C36.6901 45.325 37.8693 44.5177 39.4694 44.4666C42.1957 44.4666 44.4058 46.6764 44.4058 49.4027Z" fill="white"/>
<path d="M67.0616 44.9852V46.4121C65.7871 45.3068 64.1252 44.6393 62.3057 44.6393C58.2933 44.6393 55.042 47.8907 55.042 51.903C55.042 55.9152 58.2933 59.1667 62.3057 59.1667C64.1252 59.1667 65.7871 58.4991 67.0616 57.3942V58.8209H69.4831V44.9852H67.0616ZM62.3057 56.4862C59.7739 56.4862 57.7226 54.4348 57.7226 51.903C57.7226 49.3711 59.7739 47.3201 62.3057 47.3201C64.8377 47.3201 66.8889 49.3711 66.8889 51.903C66.8889 54.4348 64.8377 56.4862 62.3057 56.4862Z" fill="white"/>
<path d="M51.1783 47.9252V54.4816C51.1783 55.3411 51.3356 55.8669 51.6089 56.1487C51.9184 56.4671 52.8972 56.538 53.7448 56.5345V58.9973C53.3817 58.9973 53.0358 58.999 52.842 58.999C52.2004 58.999 51.6383 58.9194 51.1506 58.7585C50.7181 58.6185 50.3447 58.416 50.0265 58.1482C49.2568 57.4996 48.8297 56.5138 48.7292 55.1441V47.9252H45.7893V45.5042H48.7292V40.3158H51.1506V45.5042H53.7448V47.9252H51.1783Z" fill="white"/>
<path d="M28.4653 48.3577L30.9418 47.3201C29.9135 45.2988 28.125 44.3594 26.2888 45.1367C24.1418 46.0452 23.4777 48.7396 24.8026 50.6578C25.4017 51.5253 26.3109 52.3261 27.5381 53.0585C29.0884 54.0169 29.2648 55.3383 28.3459 56.0379C27.8854 56.3883 27.2624 56.467 26.7211 56.2625C26.1276 56.0384 25.719 55.5792 25.7275 55.0161L23.3064 55.8809C24.4305 59.5991 28.5812 59.9451 30.743 57.2645C31.5865 56.1466 31.8942 55.0089 31.6536 53.8513C31.4413 52.8294 30.8051 51.9454 29.9423 51.3587L26.9739 49.3402C26.4734 48.9998 26.4092 48.2534 26.8857 47.8797C27.3412 47.5225 28.025 47.6887 28.4653 48.3577Z" fill="white"/>
<defs>
<linearGradient id="paint0_linear_1_2789" x1="9.78672" y1="92.2579" x2="85.6338" y2="92.2579" gradientUnits="userSpaceOnUse">
<stop stop-color="#27B9EC"/>
<stop offset="1" stop-color="#1350A3"/>
</linearGradient>
</defs>
</svg>
