<svg width="20" height="20" viewBox="0 0 20 20" fill="none" xmlns="http://www.w3.org/2000/svg">
<g clip-path="url(#clip0_1_850)">
<path d="M19.2188 18.8671H18.3263L12.4861 12.6619C12.4491 12.6226 12.4044 12.5914 12.3548 12.5702C12.3052 12.5491 12.2517 12.5385 12.1977 12.539C12.1438 12.5395 12.0905 12.5513 12.0413 12.5734C11.9921 12.5955 11.9481 12.6276 11.9119 12.6677L9.64165 15.1862L8.80786 13.9452H9.7063C9.78065 13.9438 9.8531 13.9215 9.91541 13.8809C9.97772 13.8404 10.0274 13.7831 10.0588 13.7157C10.0906 13.6498 10.1029 13.5762 10.0943 13.5035C10.0857 13.4309 10.0565 13.3622 10.0102 13.3055L8.2829 11.1718H9.11533C9.18758 11.1703 9.25807 11.1492 9.31921 11.1106C9.38035 11.0721 9.42982 11.0176 9.46232 10.953C9.49523 10.8891 9.50998 10.8174 9.50497 10.7456C9.49996 10.6739 9.47539 10.6049 9.43392 10.5462L7.93915 8.43742H8.25607C8.3294 8.43694 8.40113 8.41595 8.46317 8.37684C8.5252 8.33772 8.57505 8.28204 8.60709 8.21607C8.63913 8.15011 8.65208 8.0765 8.64448 8.00356C8.63688 7.93062 8.60903 7.86126 8.56408 7.80332L5.83595 4.30527C5.79878 4.25757 5.75104 4.21914 5.69649 4.19303C5.64194 4.16691 5.58207 4.15382 5.5216 4.15478C5.46113 4.15575 5.40171 4.17074 5.34802 4.19857C5.29433 4.22641 5.24784 4.26633 5.2122 4.3152L2.66568 7.81266C2.62323 7.87121 2.59774 7.94032 2.59199 8.01241C2.58624 8.0845 2.60045 8.15678 2.63307 8.22132C2.66569 8.28587 2.71546 8.34018 2.77692 8.3783C2.83837 8.41642 2.90914 8.43687 2.98146 8.43742H3.28435L1.80267 10.5439C1.76151 10.6036 1.73726 10.6733 1.7325 10.7457C1.72775 10.818 1.74265 10.8903 1.77564 10.9549C1.80827 11.0191 1.85778 11.0733 1.91885 11.1115C1.97993 11.1497 2.05025 11.1705 2.12228 11.1718H2.87279L1.1454 13.302C1.09902 13.3599 1.06982 13.4296 1.06115 13.5032C1.05248 13.5769 1.06467 13.6515 1.09634 13.7185C1.12802 13.7856 1.17789 13.8424 1.24029 13.8825C1.30268 13.9226 1.37508 13.9443 1.44923 13.9452H2.18083L0.438646 16.6467C0.40073 16.7036 0.379318 16.77 0.376781 16.8383C0.374244 16.9067 0.39068 16.9745 0.424271 17.0341C0.458504 17.0943 0.508528 17.1441 0.568952 17.178C0.629376 17.2119 0.697907 17.2287 0.767161 17.2265H5.15626V18.8671H2.9297C2.8261 18.8671 2.72674 18.9083 2.65349 18.9815C2.58023 19.0548 2.53908 19.1541 2.53908 19.2577C2.53908 19.3613 2.58023 19.4607 2.65349 19.534C2.72674 19.6072 2.8261 19.6484 2.9297 19.6484H19.2188C19.3224 19.6484 19.4217 19.6072 19.495 19.534C19.5682 19.4607 19.6094 19.3613 19.6094 19.2577C19.6094 19.1541 19.5682 19.0548 19.495 18.9815C19.4217 18.9083 19.3224 18.8671 19.2188 18.8671ZM12.2074 13.5057L17.2535 18.8671H7.36056L8.83025 17.2265H10.2885C10.3587 17.2282 10.428 17.2105 10.4888 17.1754C10.5496 17.1403 10.5995 17.0891 10.633 17.0274C10.6666 16.9658 10.6825 16.8961 10.6791 16.826C10.6756 16.7559 10.6528 16.6881 10.6133 16.63L10.0891 15.847L12.2074 13.5057ZM3.22509 13.744C3.26298 13.687 3.28437 13.6206 3.2869 13.5523C3.28943 13.4839 3.273 13.4161 3.23943 13.3565C3.2052 13.2962 3.15518 13.2465 3.09476 13.2125C3.03433 13.1786 2.9658 13.1618 2.89654 13.164H2.26712L3.99451 11.0191C4.0408 10.9623 4.06991 10.8934 4.07844 10.8206C4.08697 10.7478 4.07456 10.6741 4.04265 10.6081C4.01075 10.5421 3.96068 10.4866 3.89833 10.4481C3.83598 10.4095 3.76393 10.3896 3.69064 10.3905H2.87423L4.35591 8.27449C4.39705 8.21577 4.42134 8.1469 4.42614 8.07536C4.43094 8.00382 4.41607 7.93233 4.38314 7.86863C4.35022 7.80494 4.30048 7.75147 4.23934 7.71402C4.17819 7.67657 4.10797 7.65656 4.03626 7.65617H3.74908L5.53861 5.19817L7.45595 7.65617H7.18314C7.11162 7.65572 7.04137 7.675 6.98011 7.71191C6.91885 7.74882 6.86897 7.80191 6.83595 7.86535C6.80303 7.93013 6.78829 8.00261 6.79329 8.0751C6.79829 8.14758 6.82285 8.21735 6.86435 8.27699L8.35939 10.3905H7.46486C7.39175 10.3891 7.31973 10.4085 7.25729 10.4466C7.19485 10.4846 7.14458 10.5397 7.1124 10.6054C7.08061 10.6725 7.06832 10.7473 7.07691 10.8211C7.08551 10.8948 7.11466 10.9647 7.16103 11.0228L8.88857 13.164H8.0772C8.00707 13.1626 7.93788 13.1804 7.87716 13.2155C7.81643 13.2506 7.76649 13.3017 7.73275 13.3632C7.69939 13.4236 7.68355 13.4921 7.687 13.561C7.69045 13.6299 7.71306 13.6965 7.75228 13.7532L9.55786 16.4452H5.93751V14.3602L6.67501 13.7304C6.71395 13.697 6.74593 13.6563 6.76913 13.6106C6.79232 13.5649 6.80628 13.5151 6.8102 13.4639C6.81412 13.4128 6.80793 13.3614 6.79198 13.3127C6.77603 13.264 6.75063 13.2189 6.71724 13.18C6.68492 13.1409 6.64512 13.1085 6.60017 13.0849C6.55521 13.0614 6.50601 13.047 6.45543 13.0426C6.40485 13.0382 6.35391 13.044 6.30558 13.0595C6.25726 13.0751 6.21251 13.1001 6.17396 13.1331L5.93751 13.3384V12.6002C5.93751 12.4966 5.89636 12.3972 5.8231 12.3239C5.74985 12.2507 5.65049 12.2095 5.54689 12.2095C5.44329 12.2095 5.34393 12.2507 5.27067 12.3239C5.19742 12.3972 5.15626 12.4966 5.15626 12.6002V14.5886L4.51001 14.1913C4.46648 14.1635 4.41785 14.1446 4.36694 14.1357C4.31603 14.1268 4.26386 14.1281 4.21346 14.1395C4.16306 14.151 4.11544 14.1723 4.07336 14.2023C4.03128 14.2323 3.99558 14.2704 3.96834 14.3143C3.9411 14.3582 3.92286 14.4071 3.91468 14.4581C3.9065 14.5092 3.90854 14.5613 3.92069 14.6115C3.93283 14.6618 3.95484 14.7091 3.98543 14.7507C4.01602 14.7924 4.05458 14.8276 4.09888 14.8542L5.15626 15.5094V16.4452H1.48286L3.22509 13.744ZM5.93751 17.2265H7.77712L6.3074 18.8671H5.93751V17.2265ZM15.6211 6.24238C15.9946 6.24238 16.3597 6.13164 16.6702 5.92415C16.9807 5.71666 17.2227 5.42175 17.3657 5.07672C17.5086 4.73168 17.546 4.35201 17.4731 3.98572C17.4002 3.61943 17.2204 3.28297 16.9563 3.01889C16.6922 2.75481 16.3558 2.57496 15.9895 2.5021C15.6232 2.42924 15.2435 2.46664 14.8985 2.60956C14.5535 2.75248 14.2585 2.9945 14.0511 3.30503C13.8436 3.61556 13.7328 3.98064 13.7328 4.3541C13.7334 4.85473 13.9325 5.3347 14.2865 5.6887C14.6405 6.0427 15.1205 6.24183 15.6211 6.24238ZM15.6211 3.24707C15.8401 3.24707 16.0541 3.312 16.2361 3.43364C16.4182 3.55528 16.5601 3.72818 16.6439 3.93046C16.7277 4.13274 16.7496 4.35533 16.7069 4.57007C16.6642 4.78482 16.5587 4.98207 16.4039 5.13689C16.2491 5.29171 16.0518 5.39715 15.8371 5.43986C15.6223 5.48258 15.3997 5.46065 15.1975 5.37687C14.9952 5.29308 14.8223 5.15119 14.7006 4.96914C14.579 4.78709 14.5141 4.57305 14.5141 4.3541C14.5144 4.0606 14.6311 3.77922 14.8387 3.57168C15.0462 3.36414 15.3276 3.2474 15.6211 3.24707Z" fill="white"/>
<path d="M15.2344 6.86398V7.96613C15.2344 8.06973 15.2755 8.16909 15.3488 8.24235C15.422 8.3156 15.5214 8.35676 15.625 8.35676C15.7286 8.35676 15.828 8.3156 15.9012 8.24235C15.9745 8.16909 16.0156 8.06973 16.0156 7.96613V6.86398C16.0156 6.76038 15.9745 6.66103 15.9012 6.58777C15.828 6.51451 15.7286 6.47336 15.625 6.47336C15.5214 6.47336 15.422 6.51451 15.3488 6.58777C15.2755 6.66103 15.2344 6.76038 15.2344 6.86398ZM15.625 2.23496C15.7286 2.23496 15.828 2.19381 15.9012 2.12055C15.9745 2.04729 16.0156 1.94794 16.0156 1.84434V0.742187C16.0156 0.638587 15.9745 0.53923 15.9012 0.465974C15.828 0.392718 15.7286 0.351562 15.625 0.351562C15.5214 0.351562 15.422 0.392718 15.3488 0.465974C15.2755 0.53923 15.2344 0.638587 15.2344 0.742187V1.84434C15.2344 1.94794 15.2755 2.04729 15.3488 2.12055C15.422 2.19381 15.5214 2.23496 15.625 2.23496ZM19.2329 3.94531H18.1307C18.0271 3.94531 17.9278 3.98647 17.8545 4.05972C17.7812 4.13298 17.7401 4.23234 17.7401 4.33594C17.7401 4.43954 17.7812 4.53889 17.8545 4.61215C17.9278 4.68541 18.0271 4.72656 18.1307 4.72656H19.2329C19.3365 4.72656 19.4358 4.68541 19.5091 4.61215C19.5823 4.53889 19.6235 4.43954 19.6235 4.33594C19.6235 4.23234 19.5823 4.13298 19.5091 4.05972C19.4358 3.98647 19.3365 3.94531 19.2329 3.94531ZM12.0089 4.72656H13.1111C13.2147 4.72656 13.3141 4.68541 13.3873 4.61215C13.4606 4.53889 13.5017 4.43954 13.5017 4.33594C13.5017 4.23234 13.4606 4.13298 13.3873 4.05972C13.3141 3.98647 13.2147 3.94531 13.1111 3.94531H12.0089C11.9053 3.94531 11.806 3.98647 11.7327 4.05972C11.6594 4.13298 11.6183 4.23234 11.6183 4.33594C11.6183 4.43954 11.6594 4.53889 11.7327 4.61215C11.806 4.68541 11.9053 4.72656 12.0089 4.72656ZM17.1105 5.84375C17.0373 5.91701 16.9961 6.01636 16.9961 6.11996C16.9961 6.22356 17.0373 6.32292 17.1105 6.39617L17.8818 7.1675C17.9551 7.24076 18.0545 7.28192 18.1581 7.28192C18.2617 7.28193 18.361 7.24077 18.4343 7.16752C18.5075 7.09426 18.5487 6.99491 18.5487 6.8913C18.5487 6.7877 18.5076 6.68834 18.4343 6.61508L17.663 5.84375C17.6267 5.80747 17.5836 5.77869 17.5362 5.75906C17.4888 5.73943 17.438 5.72932 17.3867 5.72932C17.3354 5.72932 17.2846 5.73943 17.2372 5.75906C17.1898 5.77869 17.1468 5.80747 17.1105 5.84375ZM13.5788 2.86453C13.6521 2.93779 13.7514 2.97895 13.855 2.97895C13.9586 2.97895 14.058 2.93779 14.1313 2.86453C14.2045 2.79127 14.2457 2.69191 14.2457 2.5883C14.2457 2.48469 14.2045 2.38533 14.1313 2.31207L13.3599 1.54074C13.2867 1.46748 13.1873 1.42632 13.0837 1.42632C12.9801 1.42632 12.8807 1.46748 12.8075 1.54074C12.7342 1.614 12.693 1.71337 12.693 1.81697C12.693 1.92058 12.7342 2.01994 12.8075 2.0932L13.5788 2.86453ZM17.3867 2.97891C17.438 2.97897 17.4888 2.9689 17.5362 2.94927C17.5836 2.92964 17.6267 2.90084 17.6629 2.86453L18.4343 2.0932C18.5075 2.01994 18.5487 1.92058 18.5487 1.81697C18.5487 1.71337 18.5075 1.614 18.4343 1.54074C18.361 1.46748 18.2616 1.42632 18.158 1.42632C18.0544 1.42632 17.9551 1.46748 17.8818 1.54074L17.1105 2.31207C17.0559 2.3667 17.0187 2.4363 17.0036 2.51208C16.9885 2.58785 16.9963 2.66639 17.0258 2.73777C17.0554 2.80914 17.1055 2.87015 17.1697 2.91307C17.2339 2.95599 17.3095 2.9789 17.3867 2.97891ZM13.6445 5.77824L12.8076 6.61516C12.7344 6.68842 12.6932 6.78778 12.6932 6.89138C12.6932 6.99498 12.7344 7.09434 12.8076 7.1676C12.8809 7.24085 12.9803 7.282 13.0839 7.282C13.1875 7.282 13.2868 7.24084 13.3601 7.16758L14.197 6.33062C14.2338 6.29448 14.2631 6.25139 14.2832 6.20385C14.3033 6.15631 14.3137 6.10526 14.314 6.05365C14.3142 6.00204 14.3042 5.9509 14.2846 5.90317C14.265 5.85544 14.2361 5.81208 14.1996 5.77559C14.1631 5.7391 14.1197 5.7102 14.072 5.69057C14.0243 5.67093 13.9731 5.66095 13.9215 5.66119C13.8699 5.66144 13.8188 5.67191 13.7713 5.692C13.7238 5.71209 13.6807 5.7414 13.6445 5.77824Z" fill="white"/>
</g>
<defs>
<clipPath id="clip0_1_850">
<rect width="20" height="20" fill="white"/>
</clipPath>
</defs>
</svg>
