<svg width="25" height="25" viewBox="0 0 25 25" fill="none" xmlns="http://www.w3.org/2000/svg">
<path fill-rule="evenodd" clip-rule="evenodd" d="M7.72729 8.15015C7.72729 7.59815 7.2803 7.15015 6.72729 7.15015H1.72729C1.17529 7.15015 0.727295 7.59815 0.727295 8.15015V23.1501C0.727295 23.7021 1.17529 24.1501 1.72729 24.1501H6.72729C7.2803 24.1501 7.72729 23.7021 7.72729 23.1501V8.15015Z" fill="white"/>
<path fill-rule="evenodd" clip-rule="evenodd" d="M13.6563 2.08615L9.81525 9.70015C9.74525 9.83915 9.70825 9.99415 9.70825 10.1501V21.1501C9.70825 21.4161 9.81425 21.6711 10.0033 21.8591L12.0123 23.8591C12.2003 24.0451 12.4533 24.1501 12.7183 24.1501H19.0693C20.4993 24.1501 21.7303 23.1411 22.0103 21.7391L24.2143 10.7291C24.3913 9.84715 24.1623 8.93215 23.5923 8.23715C23.0213 7.54215 22.1693 7.13915 21.2703 7.14015L18.3083 7.14315L19.3293 4.03815C19.8333 2.50515 18.9983 0.853149 17.4653 0.349149C17.4163 0.333149 17.3673 0.317149 17.3183 0.300149C15.8113 -0.194851 14.1893 0.603148 13.6563 2.08615Z" fill="white"/>
</svg>
