<svg width="18" height="29" viewBox="0 0 18 29" fill="none" xmlns="http://www.w3.org/2000/svg">
<path d="M8.9996 13.6518C11.5757 13.6518 13.6716 11.5562 13.6716 8.98045C13.6716 6.40465 11.5757 4.30911 8.9996 4.30911C6.42349 4.30911 4.32764 6.40465 4.32764 8.98045C4.32764 11.5562 6.42349 13.6518 8.9996 13.6518ZM8.9996 5.97882C10.655 5.97882 12.0017 7.32539 12.0017 8.98044C12.0017 10.6356 10.655 11.9821 8.9996 11.9821C7.34424 11.9821 5.99756 10.6356 5.99756 8.98044C5.99756 7.32539 7.34427 5.97882 8.9996 5.97882Z" fill="#188DFF"/>
<path d="M3.91278 17.3745C5.17829 19.0876 4.66986 18.4214 8.31503 23.6257C8.64633 24.1006 9.35087 24.1028 9.68408 23.6264C13.3457 18.3974 12.8419 19.0597 14.0868 17.3744C15.3479 15.6671 16.652 13.9016 17.3666 11.8328C18.4009 8.83806 17.9538 5.8749 16.1078 3.48913C16.1078 3.48913 16.1079 3.48913 16.1078 3.48913C14.4168 1.30437 11.7596 0 8.9998 0C6.24003 0 3.58285 1.30432 1.89182 3.48919C0.0458317 5.87495 -0.401251 8.83817 0.633097 11.833C1.3476 13.9017 2.6517 15.6671 3.91278 17.3745ZM3.21252 4.51096C4.58953 2.73188 6.75302 1.6697 8.99981 1.6697C11.2466 1.6697 13.4101 2.73188 14.7871 4.51096C16.277 6.43649 16.6324 8.84324 15.7881 11.2879C15.1569 13.1152 13.93 14.7762 12.7435 16.3825C11.8197 17.6331 12.0962 17.2506 8.9998 21.6891C5.9066 17.255 6.17957 17.6327 5.25605 16.3825C4.06957 14.7762 2.84268 13.1152 2.21151 11.2879C1.3672 8.84318 1.72267 6.43644 3.21252 4.51096Z" fill="#188DFF"/>
<path d="M4.59857 20.9947C4.35231 20.6049 3.83664 20.4884 3.44677 20.7347L1.07269 22.2342C0.554806 22.5612 0.554287 23.3184 1.07269 23.6458L8.55394 28.3709C8.82631 28.5431 9.17343 28.543 9.44574 28.3709L16.927 23.6458C17.4449 23.3187 17.4454 22.5615 16.927 22.2342L14.5529 20.7348C14.1629 20.4885 13.6473 20.6049 13.4011 20.9947C13.1548 21.3845 13.2713 21.9001 13.6611 22.1463L14.9177 22.94L8.9998 26.6777L3.082 22.94L4.33856 22.1463C4.72842 21.9002 4.84483 21.3845 4.59857 20.9947Z" fill="#188DFF"/>
</svg>
