<svg width="55" height="57" viewBox="0 0 55 57" fill="none" xmlns="http://www.w3.org/2000/svg">
<path d="M0 17.0001C0 7.61128 7.61116 0.00012207 17 0.00012207H38C47.3888 0.00012207 55 7.61128 55 17.0001V40.0001C55 49.389 47.3888 57.0001 38 57.0001H17C7.61116 57.0001 0 49.389 0 40.0001V17.0001Z" fill="url(#paint0_linear_1_613)"/>
<path d="M52.1826 21.9564H49.5024L44.3632 26.2761V25.0911C44.3632 24.1335 43.5868 23.3572 42.6291 23.3572L42.6289 29.6183L52.1826 21.9564Z" fill="#051336"/>
<path d="M44.3632 29.3346L42.629 30.7009V34.2533H44.3632V29.3346Z" fill="white"/>
<rect x="10.5381" y="22.0406" width="1.40823" height="12.1716" fill="white"/>
<path d="M25.8278 28.7343V34.2122H24.4196V29.0318C24.4196 28.0595 23.6313 27.2714 22.6592 27.2714C21.687 27.2714 20.8989 28.0595 20.8989 29.0318V34.2122H19.4906V22.0406H20.8989V27.2714C21.3401 26.3625 22.026 25.893 22.9567 25.8632C24.5424 25.8632 25.8278 27.1486 25.8278 28.7343Z" fill="white"/>
<path d="M39.0052 26.165V26.9949C38.2639 26.352 37.2972 25.9637 36.239 25.9637C33.9052 25.9637 32.0142 27.8549 32.0142 30.1885C32.0142 32.5222 33.9052 34.4134 36.239 34.4134C37.2972 34.4134 38.2639 34.0251 39.0052 33.3824V34.2123H40.4136V26.165H39.0052ZM36.239 32.8543C34.7664 32.8543 33.5733 31.6612 33.5733 30.1885C33.5733 28.7159 34.7664 27.523 36.239 27.523C37.7117 27.523 38.9047 28.7159 38.9047 30.1885C38.9047 31.6612 37.7117 32.8543 36.239 32.8543Z" fill="white"/>
<path d="M29.767 27.875V31.6884C29.767 32.1883 29.8585 32.4941 30.0175 32.658C30.1974 32.8432 30.7668 32.8845 31.2597 32.8824V34.3148C31.0485 34.3148 30.8474 34.3159 30.7347 34.3159C30.3615 34.3159 30.0345 34.2695 29.7509 34.176C29.4993 34.0945 29.2821 33.9767 29.097 33.821C28.6494 33.4437 28.4009 32.8704 28.3425 32.0737V27.875H26.6326V26.4668H28.3425V23.4491H29.7509V26.4668H31.2597V27.875H29.767Z" fill="white"/>
<path d="M16.5564 28.1264L17.9968 27.5229C17.3987 26.3472 16.3585 25.8009 15.2905 26.2529C14.0417 26.7814 13.6554 28.3485 14.426 29.4642C14.7745 29.9688 15.3033 30.4346 16.0171 30.8605C16.9188 31.418 17.0214 32.1865 16.4869 32.5934C16.2191 32.7972 15.8567 32.843 15.5419 32.7241C15.1967 32.5937 14.959 32.3267 14.964 31.9991L13.5558 32.5021C14.2096 34.6647 16.6238 34.866 17.8812 33.3069C18.3718 32.6566 18.5507 31.9949 18.4108 31.3216C18.2873 30.7273 17.9173 30.2131 17.4154 29.8719L15.6889 28.6978C15.3978 28.4999 15.3605 28.0657 15.6376 27.8484C15.9026 27.6406 16.3003 27.7372 16.5564 28.1264Z" fill="white"/>
<defs>
<linearGradient id="paint0_linear_1_613" x1="5.666" y1="53.6603" x2="49.5775" y2="53.6603" gradientUnits="userSpaceOnUse">
<stop stop-color="#27B9EC"/>
<stop offset="1" stop-color="#1350A3"/>
</linearGradient>
</defs>
</svg>
