<svg width="15" height="19" viewBox="0 0 15 19" fill="none" xmlns="http://www.w3.org/2000/svg">
<path d="M5.47698 0.307331C5.46626 0.308776 5.45557 0.310485 5.44494 0.312458H4.87716C4.85453 0.311285 4.83186 0.311285 4.80923 0.312458C4.63502 0.321466 4.47152 0.399309 4.35471 0.528863C4.23789 0.658417 4.17733 0.82907 4.18634 1.00328C4.19534 1.17749 4.27319 1.34098 4.40274 1.4578C4.5323 1.57461 4.70295 1.63518 4.87716 1.62617H4.88613V8.6869V8.68818L1.21158 16.4103C1.20958 16.4141 1.20843 16.4179 1.20645 16.4218L1.20517 16.4244C1.00216 16.8239 0.904581 17.1999 0.960369 17.5676C1.01682 17.9397 1.25749 18.2436 1.49226 18.402C1.9618 18.7188 2.43045 18.6788 2.43045 18.6788H12.589C12.589 18.6788 12.706 18.6897 12.8799 18.6622C12.8982 18.6593 12.9232 18.6505 12.9427 18.6468C13.1101 18.6147 13.3139 18.5529 13.5233 18.4109C13.6402 18.3317 13.7573 18.2153 13.8527 18.0739V18.0726C13.9002 18.0022 13.9431 17.9252 13.977 17.8432V17.8419C14.0109 17.7599 14.0366 17.6728 14.0514 17.5817V17.5804C14.0788 17.4085 14.0713 17.234 14.0385 17.0549C14.0364 17.0433 14.0371 17.032 14.0347 17.0203C14.0293 16.9938 14.0183 16.9664 14.0116 16.9396C13.9945 16.8699 13.9778 16.8007 13.9527 16.7294C13.9181 16.6313 13.8767 16.5311 13.8284 16.4295L13.8271 16.4282V16.4269L10.1474 8.68818V1.62489C10.32 1.61959 10.4836 1.54647 10.6027 1.42138C10.7217 1.29629 10.7867 1.12931 10.7835 0.956645C10.7803 0.783976 10.7092 0.619525 10.5855 0.498941C10.4619 0.378357 10.2957 0.311354 10.123 0.312458H9.55654C9.534 0.309574 9.51133 0.307863 9.48861 0.307331H5.53978C5.51886 0.306329 5.4979 0.306329 5.47698 0.307331ZM6.19856 1.62617H8.83368V8.23191H6.19856V1.62617ZM5.93325 9.54434H9.09898L11.3304 14.234L12.6415 16.9909L12.6428 16.9921V16.9934C12.6958 17.105 12.722 17.1833 12.7338 17.2357C12.7458 17.2886 12.7431 17.3167 12.7428 17.3305C12.6919 17.3437 12.6082 17.3638 12.6082 17.3638C12.6048 17.3638 12.6014 17.3638 12.5979 17.3638H2.43045C2.43045 17.3638 2.33431 17.3416 2.27536 17.3254C2.27546 17.3149 2.27406 17.2898 2.28305 17.2472C2.28349 17.2451 2.28256 17.2455 2.28305 17.2433V17.2421C2.2952 17.1933 2.32142 17.12 2.3779 17.0101C2.38098 17.0041 2.38397 16.9982 2.38687 16.9921V16.9909L3.09948 15.4939L5.93325 9.54434ZM8.15567 10.8094C7.79714 10.8094 7.49689 11.1109 7.49689 11.4694C7.49689 11.8279 7.79714 12.1231 8.15567 12.1231C8.5142 12.1231 8.80933 11.8279 8.80933 11.4694C8.80933 11.1109 8.5142 10.8094 8.15567 10.8094ZM5.53081 13.4355C5.17228 13.4355 4.87716 13.7358 4.87716 14.0943C4.87716 14.4528 5.17228 14.7479 5.53081 14.7479C5.88934 14.7479 6.18959 14.4528 6.18959 14.0943C6.18959 13.7358 5.88934 13.4355 5.53081 13.4355ZM9.46939 14.7479C9.11086 14.7479 8.80932 15.0482 8.80933 15.4067C8.80933 15.7652 9.11086 16.0604 9.46939 16.0604C9.82792 16.0604 10.123 15.7652 10.123 15.4067C10.123 15.0482 9.82792 14.7479 9.46939 14.7479Z" fill="black"/>
</svg>
