<svg width="24" height="24" viewBox="0 0 24 24" fill="none" xmlns="http://www.w3.org/2000/svg">
<path d="M17.98 10.7899V14.7899C17.98 15.0499 17.97 15.2999 17.94 15.5399C17.71 18.2399 16.12 19.5799 13.19 19.5799H12.79C12.54 19.5799 12.3 19.6999 12.15 19.8999L10.95 21.4999C10.42 22.2099 9.56 22.2099 9.03 21.4999L7.82999 19.8999C7.69999 19.7299 7.41 19.5799 7.19 19.5799H6.79001C3.60001 19.5799 2 18.7899 2 14.7899V10.7899C2 7.85989 3.35001 6.26989 6.04001 6.03989C6.28001 6.00989 6.53001 5.99988 6.79001 5.99988H13.19C16.38 5.99988 17.98 7.59989 17.98 10.7899Z" stroke="#292D32" stroke-width="1.5" stroke-linecap="round" stroke-linejoin="round"/>
<path opacity="0.4" d="M21.98 6.78989V10.7899C21.98 13.7299 20.63 15.3099 17.94 15.5399C17.97 15.2999 17.98 15.0499 17.98 14.7899V10.7899C17.98 7.59989 16.38 5.99988 13.19 5.99988H6.79004C6.53004 5.99988 6.28004 6.00989 6.04004 6.03989C6.27004 3.34989 7.86004 1.99988 10.79 1.99988H17.19C20.38 1.99988 21.98 3.59989 21.98 6.78989Z" stroke="#292D32" stroke-width="1.5" stroke-linecap="round" stroke-linejoin="round"/>
<path opacity="0.4" d="M13.4955 13.2499H13.5045" stroke="#292D32" stroke-width="2" stroke-linecap="round" stroke-linejoin="round"/>
<path opacity="0.4" d="M9.99548 13.2499H10.0045" stroke="#292D32" stroke-width="2" stroke-linecap="round" stroke-linejoin="round"/>
<path opacity="0.4" d="M6.49548 13.2499H6.50448" stroke="#292D32" stroke-width="2" stroke-linecap="round" stroke-linejoin="round"/>
</svg>
