<svg width="20" height="20" viewBox="0 0 20 20" fill="none" xmlns="http://www.w3.org/2000/svg">
<path d="M9.99997 0.517334C4.76245 0.517334 0.517212 4.76258 0.517212 10.0001C0.517212 15.2376 4.76245 19.4828 9.99997 19.4828C15.2375 19.4828 19.4827 15.2376 19.4827 10.0001C19.4827 4.76258 15.2375 0.517334 9.99997 0.517334ZM14.931 10.7587H10.7586V14.9311C10.7586 15.1323 10.6787 15.3253 10.5364 15.4676C10.3941 15.6098 10.2012 15.6897 9.99997 15.6897C9.79877 15.6897 9.60581 15.6098 9.46354 15.4676C9.32127 15.3253 9.24135 15.1323 9.24135 14.9311V10.7587H5.06894C4.86774 10.7587 4.67478 10.6788 4.53251 10.5365C4.39024 10.3942 4.31032 10.2013 4.31032 10.0001C4.31032 9.79889 4.39024 9.60594 4.53251 9.46367C4.67478 9.3214 4.86774 9.24147 5.06894 9.24147H9.24135V5.06906C9.24135 4.86786 9.32127 4.6749 9.46354 4.53263C9.60581 4.39036 9.79877 4.31044 9.99997 4.31044C10.2012 4.31044 10.3941 4.39036 10.5364 4.53263C10.6787 4.6749 10.7586 4.86786 10.7586 5.06906V9.24147H14.931C15.1322 9.24147 15.3252 9.3214 15.4674 9.46367C15.6097 9.60594 15.6896 9.79889 15.6896 10.0001C15.6896 10.2013 15.6097 10.3942 15.4674 10.5365C15.3252 10.6788 15.1322 10.7587 14.931 10.7587Z" fill="#188DFF"/>
</svg>
