<svg width="24" height="24" viewBox="0 0 24 24" fill="none" xmlns="http://www.w3.org/2000/svg">
<path opacity="0.4" d="M12.1601 10.8699C12.0601 10.8599 11.9401 10.8599 11.8301 10.8699C9.45006 10.7899 7.56006 8.83988 7.56006 6.43988C7.56006 3.98988 9.54006 1.99988 12.0001 1.99988C14.4501 1.99988 16.4401 3.98988 16.4401 6.43988C16.4301 8.83988 14.5401 10.7899 12.1601 10.8699Z" stroke="#292D32" stroke-width="1.5" stroke-linecap="round" stroke-linejoin="round"/>
<path d="M7.15997 14.5599C4.73997 16.1799 4.73997 18.8199 7.15997 20.4299C9.90997 22.2699 14.42 22.2699 17.17 20.4299C19.59 18.8099 19.59 16.1699 17.17 14.5599C14.43 12.7299 9.91997 12.7299 7.15997 14.5599Z" stroke="#292D32" stroke-width="1.5" stroke-linecap="round" stroke-linejoin="round"/>
</svg>
