<svg width="19" height="19" viewBox="0 0 19 19" fill="none" xmlns="http://www.w3.org/2000/svg">
<path d="M3.04538 10.0926L0.867836 9.78131C0.594321 9.74193 0.393172 9.5046 0.400075 9.22789C0.526715 4.16553 4.59448 0.199951 9.6611 0.199951C11.3459 0.199951 12.9844 0.658122 14.4276 1.52873L15.5499 0.406404C15.8678 0.0884601 16.4114 0.272244 16.4748 0.714503L17.2453 6.1089C17.2963 6.47015 16.984 6.77927 16.6285 6.72568L11.2341 5.95513C10.7894 5.89144 10.6101 5.34619 10.926 5.03025L12.0079 3.9484C11.2692 3.6339 10.4699 3.46948 9.6611 3.46948C6.32087 3.46948 3.62234 6.20448 3.6675 9.54558C3.672 9.8851 3.37001 10.14 3.04538 10.0926Z" fill="#555555"/>
<path d="M9.73963 18.7999C8.05005 18.7999 6.41262 18.346 4.97636 17.4834L3.8269 18.6323C3.50856 18.9495 2.96545 18.767 2.90202 18.3242L2.1315 12.9298C2.0802 12.5663 2.39397 12.2624 2.74828 12.313L8.14268 13.0841C8.58741 13.1478 8.76673 13.693 8.45078 14.009L7.40352 15.0562C8.13945 15.3676 8.93503 15.5304 9.73963 15.5304C13.0448 15.5304 15.7338 12.8414 15.7338 9.53625C15.7338 9.15512 16.0747 8.91421 16.3559 8.94983L18.5318 9.26062C18.8064 9.29999 19.0076 9.53946 18.9996 9.81671C18.849 14.854 14.7818 18.7999 9.73963 18.7999Z" fill="#555555"/>
</svg>
