<svg width="26" height="26" viewBox="0 0 26 26" fill="none" xmlns="http://www.w3.org/2000/svg">
<path d="M15.3234 22.4702C15.062 22.4686 14.8052 22.401 14.5769 22.2737C14.3486 22.1465 14.156 21.9637 14.0171 21.7422C12.507 19.3688 11.1478 16.9025 9.94759 14.3582L9.49623 14.248C9.05518 14.1274 8.64881 13.9045 8.31015 13.5973C7.9715 13.2901 7.71012 12.9073 7.54727 12.48L5.59207 7.34761C5.43479 6.94143 5.37125 6.50498 5.40619 6.07081C5.44112 5.63665 5.57363 5.21597 5.79383 4.84017L6.04135 4.41377C6.13064 4.26101 6.25858 4.13445 6.4123 4.04682C6.56602 3.95919 6.7401 3.91358 6.91703 3.91457H6.92951C7.10908 3.91558 7.28515 3.96425 7.43974 4.05561C7.59432 4.14698 7.72188 4.27775 7.80935 4.43457L16.6951 20.2051C16.7936 20.3795 16.855 20.5723 16.8756 20.7714C16.8962 20.9706 16.8754 21.1719 16.8147 21.3626C16.6964 21.7459 16.4359 22.0692 16.0867 22.2664C15.8542 22.3993 15.5912 22.4695 15.3234 22.4702ZM6.91703 4.69457C6.87615 4.69406 6.83585 4.70438 6.80024 4.72447C6.76462 4.74456 6.73495 4.77371 6.71423 4.80897L6.46775 5.23329C6.30627 5.50889 6.2092 5.81744 6.18381 6.13585C6.15842 6.45426 6.20535 6.7743 6.32111 7.07201L8.27735 12.2054C8.39577 12.5178 8.58639 12.7978 8.83365 13.0225C9.08091 13.2471 9.3778 13.4101 9.70007 13.4982L10.3241 13.6625C10.3786 13.6771 10.4294 13.7032 10.473 13.7391C10.5166 13.775 10.552 13.8198 10.5768 13.8705C11.7839 16.4384 13.1525 18.9273 14.6744 21.3221C14.7781 21.4912 14.9433 21.6136 15.1353 21.6634C15.3273 21.7132 15.5311 21.6867 15.704 21.5894C15.881 21.4918 16.013 21.3292 16.0722 21.1359C16.1007 21.0463 16.1105 20.9517 16.1009 20.8581C16.0912 20.7645 16.0623 20.6739 16.016 20.592L7.13023 4.81937C7.11047 4.78026 7.07984 4.74769 7.04202 4.72555C7.00421 4.70341 6.96081 4.69266 6.91703 4.69457Z" fill="black"/>
<path d="M8.78176 22.4703C8.49973 22.471 8.22322 22.3921 7.98408 22.2425C7.64324 22.0391 7.39426 21.7117 7.2892 21.3289C7.18415 20.9461 7.23116 20.5375 7.4204 20.1885C8.31064 18.5505 9.37352 16.7763 10.4946 15.053C10.5512 14.9663 10.6399 14.9055 10.7412 14.8842C10.8425 14.8628 10.9482 14.8826 11.0349 14.9391C11.1217 14.9957 11.1824 15.0844 11.2038 15.1857C11.2251 15.287 11.2053 15.3927 11.1488 15.4794C10.0391 17.184 8.98664 18.9416 8.112 20.5588C8.01872 20.7322 7.99607 20.935 8.04879 21.1247C8.1015 21.3145 8.2255 21.4765 8.39488 21.5769C8.56105 21.6805 8.76131 21.7146 8.9524 21.6718C9.14349 21.629 9.31007 21.5127 9.41616 21.3481C10.1639 20.2187 10.9543 18.9343 11.7686 17.5261C11.8222 17.4404 11.907 17.3788 12.0051 17.3544C12.1032 17.33 12.2069 17.3446 12.2945 17.3952C12.382 17.4457 12.4465 17.5283 12.4743 17.6255C12.5021 17.7227 12.4911 17.8269 12.4436 17.9161C11.621 19.3378 10.8233 20.6357 10.0703 21.7735C9.93153 21.9887 9.74066 22.1654 9.51542 22.2872C9.29017 22.409 9.03783 22.472 8.78176 22.4703ZM12.247 13.4982C12.1961 13.4988 12.1456 13.4892 12.0983 13.4702C12.0511 13.4511 12.0081 13.4228 11.9719 13.3871C11.9356 13.3513 11.9068 13.3087 11.8871 13.2617C11.8674 13.2148 11.8572 13.1644 11.857 13.1134V13.1041C11.8572 13.0255 11.8807 12.9488 11.9246 12.8836C12.5018 12.0433 12.9958 11.3413 13.3619 10.8223C13.0615 10.5704 12.8603 10.22 12.794 9.8336C12.7277 9.44718 12.8007 9.04978 13 8.71215L15.9952 3.72015C16.0507 3.63595 16.1367 3.57647 16.235 3.55414C16.3334 3.53181 16.4366 3.54834 16.523 3.6003C16.6095 3.65225 16.6725 3.7356 16.699 3.83294C16.7254 3.93027 16.7132 4.03406 16.665 4.12263L13.6698 9.11463C13.6107 9.21263 13.5717 9.32138 13.555 9.43457C13.5383 9.54776 13.5443 9.66313 13.5726 9.774C13.6008 9.88487 13.6508 9.98903 13.7196 10.0804C13.7884 10.1718 13.8747 10.2487 13.9734 10.3065L14.1118 10.3917C14.157 10.4197 14.1961 10.4567 14.2265 10.5003C14.2569 10.5439 14.278 10.5934 14.2886 10.6455C14.2994 10.6976 14.2994 10.7514 14.2885 10.8035C14.2776 10.8555 14.256 10.9048 14.2251 10.9481L14.1211 11.1041C13.7509 11.6241 13.2184 12.3823 12.584 13.3069C12.5492 13.3652 12.4999 13.4135 12.4408 13.4471C12.3817 13.4806 12.315 13.4983 12.247 13.4982ZM13.4628 15.6469C13.3985 15.6465 13.3353 15.6305 13.2787 15.6001C13.1878 15.5511 13.12 15.4682 13.0902 15.3693C13.0603 15.2705 13.0709 15.1638 13.1196 15.0728C13.9069 13.6033 14.611 12.2357 15.0041 11.4161C15.0275 11.3663 15.0612 11.3221 15.103 11.2862C15.1447 11.2504 15.1936 11.2238 15.2464 11.2081C15.2984 11.1924 15.3531 11.1879 15.4069 11.1951C15.4607 11.2023 15.5124 11.2209 15.5584 11.2497L15.6936 11.3329C15.791 11.393 15.8993 11.4331 16.0123 11.451C16.1253 11.4688 16.2408 11.464 16.3519 11.4369C16.4617 11.4096 16.565 11.3606 16.6557 11.293C16.7464 11.2253 16.8227 11.1403 16.8802 11.0428L19.8754 6.05079C19.931 5.96659 20.0169 5.90711 20.1153 5.88478C20.2136 5.86245 20.3168 5.87898 20.4033 5.93094C20.4897 5.98289 20.5528 6.06624 20.5792 6.16358C20.6057 6.26091 20.5935 6.3647 20.5452 6.45327L17.5521 11.4401C17.4418 11.6254 17.2959 11.787 17.1227 11.9156C16.9496 12.0441 16.7526 12.137 16.5433 12.1889C16.2058 12.2719 15.8509 12.2471 15.5282 12.1181C15.1122 12.9574 14.4882 14.1597 13.807 15.4368C13.7743 15.4999 13.725 15.5529 13.6643 15.5899C13.6036 15.627 13.5339 15.6467 13.4628 15.6469Z" fill="black"/>
<path d="M15.3577 8.87127C15.2869 8.87095 15.2176 8.85154 15.157 8.81511C15.0686 8.76196 15.0049 8.67601 14.9798 8.57603C14.9546 8.47606 14.9701 8.37019 15.0228 8.28159L17.291 4.49807C17.3441 4.40925 17.4303 4.34517 17.5307 4.31991C17.631 4.29465 17.7373 4.31029 17.8261 4.36339C17.9149 4.41648 17.979 4.50269 18.0043 4.60303C18.0295 4.70338 18.0139 4.80965 17.9608 4.89847L15.6926 8.68095C15.6582 8.73915 15.6092 8.78735 15.5505 8.82074C15.4917 8.85414 15.4253 8.87155 15.3577 8.87127ZM16.6504 9.64607C16.5799 9.64608 16.5108 9.62665 16.4507 9.58991C16.4069 9.56369 16.3686 9.52909 16.3381 9.48809C16.3077 9.44708 16.2856 9.40048 16.2731 9.35094C16.2607 9.30139 16.2581 9.24988 16.2655 9.19934C16.273 9.1488 16.2903 9.10023 16.3166 9.05639L18.5848 5.27287C18.61 5.22685 18.6442 5.18639 18.6855 5.15391C18.7267 5.12143 18.774 5.09761 18.8247 5.08386C18.8753 5.07012 18.9282 5.06673 18.9802 5.07391C19.0322 5.08109 19.0822 5.09868 19.1272 5.12564C19.1722 5.15259 19.2113 5.18836 19.2422 5.23079C19.2731 5.27322 19.2951 5.32144 19.3069 5.37258C19.3186 5.42371 19.32 5.47669 19.3108 5.52836C19.3017 5.58003 19.2822 5.62931 19.2535 5.67327L16.9863 9.45575C16.9517 9.51397 16.9026 9.56215 16.8436 9.59553C16.7847 9.62891 16.7181 9.64633 16.6504 9.64607Z" fill="black"/>
</svg>
