<svg width="25" height="25" viewBox="0 0 25 25" fill="none" xmlns="http://www.w3.org/2000/svg">
<path d="M12.4238 20.3485H9.66258C8.46743 20.3485 7.42683 19.6273 7.01471 18.5145C6.59228 17.4018 6.90137 16.1758 7.79774 15.3824L16.0299 8.1806C16.5244 7.74787 16.5347 7.1606 16.3905 6.75878C16.2359 6.35697 15.8444 5.92424 15.185 5.92424H12.4238C12.0014 5.92424 11.6511 5.57394 11.6511 5.15151C11.6511 4.72909 12.0014 4.37878 12.4238 4.37878H15.185C16.3802 4.37878 17.4208 5.1 17.8329 6.21272C18.2553 7.32545 17.9462 8.55151 17.0499 9.34484L8.81774 16.5467C8.32319 16.9794 8.31289 17.5667 8.45713 17.9685C8.61167 18.3703 9.00319 18.803 9.66258 18.803H12.4238C12.8462 18.803 13.1965 19.1533 13.1965 19.5758C13.1965 19.9982 12.8462 20.3485 12.4238 20.3485Z" fill="#188DFF"/>
<path d="M20.6664 15.4546H17.5755C16.4422 15.4546 15.5149 16.3819 15.5149 17.5152V20.6061C15.5149 21.7394 16.4422 22.6667 17.5755 22.6667H20.6664C21.7997 22.6667 22.727 21.7394 22.727 20.6061V17.5152C22.727 16.3819 21.7997 15.4546 20.6664 15.4546ZM19.1313 20.091C18.5646 20.091 18.101 19.6273 18.101 19.0607C18.101 18.494 18.5543 18.0303 19.1313 18.0303H19.1416C19.7082 18.0303 20.1719 18.494 20.1719 19.0607C20.1719 19.6273 19.7082 20.091 19.1313 20.091Z" fill="#188DFF"/>
<path d="M5.6959 2.06055C3.70742 2.06055 2.08984 3.67812 2.08984 5.66661C2.08984 7.65509 3.70742 9.27267 5.6959 9.27267C7.68439 9.27267 9.30196 7.65509 9.30196 5.66661C9.30196 3.67812 7.69469 2.06055 5.6959 2.06055ZM5.73712 6.69691C5.17045 6.69691 4.70681 6.23327 4.70681 5.66661C4.70681 5.09994 5.16015 4.6363 5.73712 4.6363H5.74742C6.31409 4.6363 6.77772 5.09994 6.77772 5.66661C6.77772 6.23327 6.31409 6.69691 5.73712 6.69691Z" fill="#188DFF"/>
</svg>
