<svg width="22" height="37" viewBox="0 0 22 37" fill="none" xmlns="http://www.w3.org/2000/svg">
<path d="M13.6026 9.14348L19.9188 6.49712C17.2962 1.3413 12.7346 -1.0544 8.05118 0.927782C2.57516 3.24516 0.881195 10.1174 4.26041 15.0098C5.78867 17.2227 8.10757 19.2651 11.2375 21.133C15.1916 23.5773 15.6415 26.9478 13.2979 28.7321C12.1234 29.6258 10.5343 29.8265 9.15378 29.305C7.64011 28.7336 6.59775 27.5624 6.6196 26.126L0.444336 28.3317C3.31137 37.8152 13.898 38.6977 19.4119 31.8606C21.5632 29.0091 22.348 26.1076 21.7342 23.1551C21.1929 20.5489 19.5703 18.2937 17.3695 16.7975L9.79861 11.649C8.52206 10.7811 8.35831 8.87724 9.57364 7.9243C10.7355 7.01317 12.4796 7.43694 13.6026 9.14348Z" fill="white"/>
</svg>
