<svg width="24" height="22" viewBox="0 0 24 22" fill="none" xmlns="http://www.w3.org/2000/svg">
<path d="M22.325 12.3C21.9338 12.2998 21.5585 12.4552 21.2818 12.7318C21.0051 13.0085 20.8498 13.3838 20.85 13.7751V18.2001H3.14996V13.7751C3.14996 12.9604 2.48958 12.3 1.67496 12.3C0.860334 12.3 0.199951 12.9604 0.199951 13.7751V19.6751C0.199729 20.0663 0.35506 20.4416 0.631725 20.7183C0.908391 20.995 1.28369 21.1503 1.67496 21.1501H22.325C22.7163 21.1503 23.0916 20.995 23.3683 20.7183C23.6449 20.4416 23.8003 20.0663 23.8001 19.6751V13.7751C23.8003 13.3838 23.6449 13.0085 23.3683 12.7318C23.0916 12.4552 22.7163 12.2998 22.325 12.3Z" fill="white"/>
<path d="M10.9571 14.8179C11.533 15.3941 12.467 15.3941 13.0429 14.8179L17.4679 10.3929C18.0438 9.81695 18.0438 8.88312 17.4679 8.30716C16.8919 7.73119 15.9581 7.73119 15.3821 8.30716L13.475 10.2143V1.97501C13.475 1.16038 12.8146 0.5 12 0.5C11.1854 0.5 10.525 1.16038 10.525 1.97501V10.2143L8.61784 8.30716C8.04187 7.73118 7.10804 7.73118 6.53207 8.30715C5.95611 8.88312 5.95611 9.81695 6.53207 10.3929L10.9571 14.8179Z" fill="white"/>
</svg>
