<svg width="19" height="20" viewBox="0 0 19 20" fill="none" xmlns="http://www.w3.org/2000/svg">
<path d="M9.55877 17.3667C5.28989 17.3667 1.81433 13.8911 1.81433 9.62225C1.81433 5.35336 5.28989 1.87781 9.55877 1.87781C13.8277 1.87781 17.3032 5.35336 17.3032 9.62225C17.3032 13.8911 13.8277 17.3667 9.55877 17.3667ZM9.55877 3.01114C5.90944 3.01114 2.94766 5.98047 2.94766 9.62225C2.94766 13.264 5.90944 16.2334 9.55877 16.2334C13.2081 16.2334 16.1699 13.264 16.1699 9.62225C16.1699 5.98047 13.2081 3.01114 9.55877 3.01114Z" fill="white"/>
<path d="M17.4921 18.1222C17.3486 18.1222 17.205 18.0693 17.0917 17.956L15.5806 16.4449C15.3615 16.2258 15.3615 15.8631 15.5806 15.644C15.7997 15.4249 16.1624 15.4249 16.3815 15.644L17.8926 17.1551C18.1117 17.3742 18.1117 17.7369 17.8926 17.956C17.7793 18.0693 17.6357 18.1222 17.4921 18.1222Z" fill="white"/>
</svg>
