<svg width="20" height="22" viewBox="0 0 20 22" fill="none" xmlns="http://www.w3.org/2000/svg">
<path d="M18.6494 10.9996L19.5848 8.08973C19.6277 7.9524 19.5779 7.80299 19.4612 7.7189L16.9957 5.91821L16.0435 3.01839C15.998 2.88157 15.8704 2.78891 15.7262 2.78788L12.6727 2.77451L10.1938 0.987186C10.0781 0.903685 9.92195 0.903685 9.80627 0.987187L7.3274 2.77451L4.27391 2.78788C4.1297 2.78891 4.00212 2.88158 3.95653 3.01839L3.0044 5.91821L0.538891 7.7189C0.422127 7.80299 0.372324 7.9524 0.415281 8.08973L1.35071 10.9996L0.415281 13.9094C0.372325 14.0467 0.422127 14.1961 0.538891 14.2802L3.0044 16.0809L3.95653 18.9807C4.00212 19.1176 4.1297 19.2102 4.27391 19.2113L7.3274 19.2246L9.80627 21.0119C9.92158 21.0966 10.0785 21.0966 10.1938 21.0119L12.6727 19.2246L15.7262 19.2113C15.8704 19.2102 15.998 19.1176 16.0435 18.9807L16.9957 16.0809L19.4612 14.2802C19.5779 14.1961 19.6277 14.0467 19.5848 13.9094L18.6494 10.9996ZM16.0135 10.9996C16.0135 14.3207 13.3212 17.013 10 17.013C6.67891 17.013 3.9866 14.3207 3.9866 10.9996C3.9866 7.67843 6.67891 4.98612 10 4.98612C13.3196 4.98999 16.0096 7.68004 16.0135 10.9996Z" fill="#A0A2A4"/>
<circle cx="7.9955" cy="8.99507" r="1.33632" fill="#292D32"/>
<circle cx="12.0045" cy="13.004" r="1.33632" fill="#292D32"/>
<path d="M12.7128 9.70334L8.73056 13.7357C8.32452 14.1419 7.66697 14.1449 7.25726 13.7424C7.06345 13.5454 6.95434 13.2804 6.95325 13.004C6.95248 12.727 7.06467 12.4616 7.26394 12.2691L11.2963 8.2835C11.6955 7.91105 12.3153 7.91251 12.7128 8.28684C13.0987 8.68015 13.0987 9.31002 12.7128 9.70334Z" fill="#292D32"/>
</svg>
