<svg width="21" height="18" viewBox="0 0 21 18" fill="none" xmlns="http://www.w3.org/2000/svg">
<path d="M20.0342 5.05394L14.7198 0.186844C14.2549 -0.238341 13.5224 0.107216 13.5224 0.769346V3.3811C8.49331 3.4385 4.50666 4.44115 4.50666 9.17795C4.50666 11.0903 5.74632 12.985 7.11559 13.9746C7.54314 14.2839 8.1517 13.8958 7.99393 13.3949C6.57394 8.88212 9.01454 7.88898 13.5224 7.85728V10.4704C13.5224 11.1332 14.2564 11.4773 14.7205 11.0519L20.0349 6.18479C20.3688 5.90974 20.3688 5.36034 20.0342 5.05394ZM14.6494 13.5238C14.0271 13.5238 13.5224 14.0285 13.5224 14.6508V15.7461L2.25272 15.746V4.50807H3.37969C4.00199 4.50807 4.50666 4.00375 4.50666 3.3811C4.50666 2.75845 4.00304 2.25413 3.37969 2.25413H2.25272C1.00777 2.25413 -0.0012207 3.26312 -0.0012207 4.50807V15.7461C-0.0012207 16.9907 1.00777 18 2.25272 18L13.5224 18C14.7674 18 15.7764 16.9906 15.7764 15.746V14.6508C15.7764 14.0274 15.2727 13.5238 14.6494 13.5238Z" fill="black"/>
</svg>
