<svg width="21" height="21" viewBox="0 0 21 21" fill="none" xmlns="http://www.w3.org/2000/svg">
<path d="M11.0179 10.7664C9.79132 10.8305 8.64155 11.0765 7.5378 11.5216C4.98463 12.5505 3.05308 14.2801 1.81603 16.7392C1.2924 17.7803 0.881182 18.8778 0.41856 19.9496C0.380997 20.0372 0.340892 20.1236 0.2652 20.2002V20.031C0.2652 18.7428 0.263788 17.4546 0.265482 16.1665C0.272261 10.9299 3.7826 6.41836 8.86269 5.14544C9.49279 4.98756 10.1494 4.93474 10.794 4.8342C10.8583 4.82403 10.9236 4.81923 11.0052 4.81047V0.000106812C14.2029 2.60469 17.3636 5.17876 20.5497 7.77402C17.3738 10.3704 14.2119 12.9549 11.0179 15.566V10.7664Z" fill="white"/>
</svg>
