<svg width="18" height="15" viewBox="0 0 18 15" fill="none" xmlns="http://www.w3.org/2000/svg">
<path d="M5.06426 12.0457C5.06426 13.2232 4.11038 14.1792 2.93085 14.1792C1.75336 14.1792 0.797363 13.2232 0.797363 12.0457V6.87248C0.797363 5.69504 1.75336 4.73901 2.93085 4.73901C4.11038 4.73901 5.06426 5.69504 5.06426 6.87248V12.0457Z" fill="#188DFF"/>
<path d="M11.4668 12.045C11.4668 13.2224 10.5108 14.1785 9.33344 14.1785C8.15595 14.1785 7.19995 13.2224 7.19995 12.045V4.80243C7.19995 3.62502 8.15595 2.66895 9.33344 2.66895C10.5108 2.66895 11.4668 3.62502 11.4668 4.80243V12.045Z" fill="#188DFF"/>
<path d="M17.8693 12.0455C17.8693 13.2229 16.9133 14.179 15.7359 14.179C14.5564 14.179 13.6003 13.2229 13.6003 12.0455V2.73359C13.6003 1.5561 14.5564 0.600098 15.7359 0.600098C16.9133 0.600098 17.8693 1.5561 17.8693 2.73359V12.0455Z" fill="#188DFF"/>
</svg>
