<svg width="46" height="44" viewBox="0 0 46 44" fill="none" xmlns="http://www.w3.org/2000/svg">
<path d="M4 0C1.79086 0 0 1.79086 0 4V40C0 42.2091 1.79086 44 4 44H42C44.2091 44 46 42.2091 46 40V4C46 1.79086 44.2091 0 42 0H4ZM3.28571 7.14286C3.28571 4.93372 5.07658 3.14286 7.28571 3.14286H38.7143C40.9234 3.14286 42.7143 4.93372 42.7143 7.14286V17.1509C42.7143 20.0343 39.1101 21.3409 37.2623 19.1274C36.0628 17.6905 33.8703 17.6446 32.6117 19.0301L29.6833 22.2537C28.0328 24.0706 25.1501 23.986 23.6091 22.0752L19.3164 16.7529C17.7863 14.8558 14.9297 14.7564 13.2714 16.5426L10.2172 19.8325C7.74359 22.497 3.28571 20.7467 3.28571 17.111V7.14286ZM13.087 21.4656C14.7454 19.6788 17.6026 19.7783 19.1327 21.6759L24.336 28.1292C24.3385 28.1322 24.3379 28.1368 24.3346 28.1391C24.331 28.1417 24.3307 28.1471 24.3342 28.15L24.3825 28.1911C24.3852 28.1934 24.3877 28.196 24.3899 28.1987L29.3464 34.3466C31.4559 36.9632 29.5934 40.8571 26.2324 40.8571H7.28572C5.07658 40.8571 3.28571 39.0663 3.28571 36.8571V33.5959C3.28571 32.5866 3.66729 31.6146 4.35391 30.8748L13.087 21.4656ZM31.7957 24.7098C33.4286 22.915 36.2706 22.9757 37.8254 24.8386L41.7852 29.5831C42.3855 30.3023 42.7143 31.2094 42.7143 32.1462V38.1788C42.7143 39.658 41.5151 40.8571 40.0359 40.8571C39.2259 40.8571 38.4594 40.4906 37.951 39.86L30.7336 30.9095C29.4956 29.3742 29.5614 27.1656 30.8887 25.7068L31.7957 24.7098Z" fill="#C4C4C4"/>
</svg>
