<svg width="16" height="17" viewBox="0 0 16 17" fill="none" xmlns="http://www.w3.org/2000/svg">
<path d="M8.28078 0.781982C4.01726 0.782323 0.56222 4.2374 0.56188 8.50089C0.56222 12.7648 4.0173 16.2198 8.28078 16.2201C12.5446 16.2198 15.9997 12.7647 16 8.50089C15.9997 4.23736 12.5446 0.782323 8.28078 0.781982ZM3.74252 3.96262C4.17603 3.52949 4.67131 3.15813 5.21289 2.86288C4.92632 3.30176 4.67633 3.79594 4.46762 4.33683H3.40234C3.51193 4.20864 3.62327 4.08182 3.74252 3.96262ZM2.64963 5.42112H4.12647C3.92247 6.20731 3.80216 7.06281 3.76481 7.95855H1.89037C1.9672 7.04451 2.23084 6.18506 2.64963 5.42112ZM2.65031 11.581C2.23084 10.8167 1.9672 9.95722 1.89033 9.04284H3.75724C3.79455 9.94075 3.92098 10.7941 4.1257 11.581H2.65031ZM3.74252 13.0391C3.62331 12.9199 3.51198 12.7935 3.40277 12.6652H4.46804C4.61924 13.0574 4.79056 13.4262 4.98235 13.766C5.05671 13.8967 5.1361 14.0192 5.21616 14.141C4.67272 13.8454 4.17709 13.4737 3.74252 13.0391ZM7.73883 14.8916C7.68497 14.8873 7.63069 14.8848 7.57683 14.8787C7.40015 14.8061 7.22449 14.7102 7.04959 14.5799C6.52491 14.1902 6.02673 13.5269 5.64104 12.6652H7.73883V14.8916ZM7.73883 11.581H5.25241C5.02863 10.8152 4.89003 9.95653 4.84906 9.04284H7.73883V11.581ZM7.73883 7.95855H4.84115C4.88211 7.04524 5.02578 6.18689 5.24879 5.42112H7.73883V7.95855ZM7.73883 4.33687H5.64389C5.73297 4.1379 5.82597 3.9465 5.92654 3.76939C6.25842 3.18072 6.64739 2.72211 7.04959 2.42188C7.22453 2.29183 7.40015 2.19632 7.57649 2.12374C7.63034 2.11766 7.68497 2.11515 7.73883 2.11047V4.33687ZM13.9123 5.42112C14.3311 6.18506 14.5947 7.04451 14.6715 7.95855H12.8043C12.767 7.06102 12.6405 6.20808 12.4358 5.42112H13.9123ZM12.8194 3.96262C12.9386 4.08182 13.05 4.20864 13.1595 4.33687H12.0936C11.9427 3.94467 11.771 3.57582 11.5789 3.23569C11.5049 3.10534 11.4252 2.98286 11.3458 2.86071C11.8885 3.15664 12.3845 3.52838 12.8194 3.96262ZM8.82274 2.11047C8.8766 2.11515 8.93118 2.11766 8.98508 2.12374C9.16104 2.19632 9.33708 2.29183 9.51193 2.42188C10.037 2.81154 10.5348 3.47563 10.9209 4.33687H8.82274V2.11047ZM8.82274 5.42112H11.3095C11.5329 6.18685 11.6715 7.04558 11.7125 7.95855H8.82274V5.42112ZM10.6354 13.2323C10.3031 13.821 9.91418 14.28 9.51193 14.5799C9.33708 14.7102 9.16104 14.8061 8.9847 14.8787C8.93084 14.8848 8.8766 14.8873 8.82274 14.8916V12.6652H10.9181C10.8286 12.8638 10.736 13.0557 10.6354 13.2323ZM8.82274 11.581V9.04284H11.7204C11.6795 9.95653 11.5358 10.8153 11.3127 11.581H8.82274ZM12.8194 13.0391C12.3859 13.473 11.8906 13.844 11.349 14.1388C11.6353 13.7004 11.8852 13.2061 12.0939 12.6652H13.1591C13.05 12.7935 12.9386 12.9199 12.8194 13.0391ZM13.9116 11.581H12.4351C12.6394 10.7951 12.7594 9.93965 12.7968 9.04284H14.6715C14.5947 9.95722 14.3311 10.8167 13.9116 11.581Z" fill="black"/>
</svg>
