<svg width="18" height="22" viewBox="0 0 18 22" fill="none" xmlns="http://www.w3.org/2000/svg">
<path d="M10.2808 3.78198C6.01726 3.78232 2.56222 7.2374 2.56188 11.5009C2.56222 15.7648 6.0173 19.2198 10.2808 19.2201C14.5446 19.2198 17.9997 15.7647 18 11.5009C17.9997 7.23736 14.5446 3.78232 10.2808 3.78198ZM5.74252 6.96262C6.17603 6.52949 6.67131 6.15813 7.21289 5.86288C6.92632 6.30176 6.67633 6.79594 6.46762 7.33683H5.40234C5.51193 7.20864 5.62327 7.08182 5.74252 6.96262ZM4.64963 8.42112H6.12647C5.92247 9.20731 5.80216 10.0628 5.76481 10.9585H3.89037C3.9672 10.0445 4.23084 9.18506 4.64963 8.42112ZM4.65031 14.581C4.23084 13.8167 3.9672 12.9572 3.89033 12.0428H5.75724C5.79455 12.9408 5.92098 13.7941 6.1257 14.581H4.65031ZM5.74252 16.0391C5.62331 15.9199 5.51198 15.7935 5.40277 15.6652H6.46804C6.61924 16.0574 6.79056 16.4262 6.98235 16.766C7.05671 16.8967 7.1361 17.0192 7.21616 17.141C6.67272 16.8454 6.17709 16.4737 5.74252 16.0391ZM9.73883 17.8916C9.68497 17.8873 9.63069 17.8848 9.57683 17.8787C9.40015 17.8061 9.22449 17.7102 9.04959 17.5799C8.52491 17.1902 8.02673 16.5269 7.64104 15.6652H9.73883V17.8916ZM9.73883 14.581H7.25241C7.02863 13.8152 6.89003 12.9565 6.84906 12.0428H9.73883V14.581ZM9.73883 10.9585H6.84115C6.88211 10.0452 7.02578 9.18689 7.24879 8.42112H9.73883V10.9585ZM9.73883 7.33687H7.64389C7.73297 7.1379 7.82597 6.9465 7.92654 6.76939C8.25842 6.18072 8.64739 5.72211 9.04959 5.42188C9.22453 5.29183 9.40015 5.19632 9.57649 5.12374C9.63034 5.11766 9.68497 5.11515 9.73883 5.11047V7.33687ZM15.9123 8.42112C16.3311 9.18506 16.5947 10.0445 16.6715 10.9585H14.8043C14.767 10.061 14.6405 9.20808 14.4358 8.42112H15.9123ZM14.8194 6.96262C14.9386 7.08182 15.05 7.20864 15.1595 7.33687H14.0936C13.9427 6.94467 13.771 6.57582 13.5789 6.23569C13.5049 6.10534 13.4252 5.98286 13.3458 5.86071C13.8885 6.15664 14.3845 6.52838 14.8194 6.96262ZM10.8227 5.11047C10.8766 5.11515 10.9312 5.11766 10.9851 5.12374C11.161 5.19632 11.3371 5.29183 11.5119 5.42188C12.037 5.81154 12.5348 6.47563 12.9209 7.33687H10.8227V5.11047ZM10.8227 8.42112H13.3095C13.5329 9.18685 13.6715 10.0456 13.7125 10.9585H10.8227V8.42112ZM12.6354 16.2323C12.3031 16.821 11.9142 17.28 11.5119 17.5799C11.3371 17.7102 11.161 17.8061 10.9847 17.8787C10.9308 17.8848 10.8766 17.8873 10.8227 17.8916V15.6652H12.9181C12.8286 15.8638 12.736 16.0557 12.6354 16.2323ZM10.8227 14.581V12.0428H13.7204C13.6795 12.9565 13.5358 13.8153 13.3127 14.581H10.8227ZM14.8194 16.0391C14.3859 16.473 13.8906 16.844 13.349 17.1388C13.6353 16.7004 13.8852 16.2061 14.0939 15.6652H15.1591C15.05 15.7935 14.9386 15.9199 14.8194 16.0391ZM15.9116 14.581H14.4351C14.6394 13.7951 14.7594 12.9396 14.7968 12.0428H16.6715C16.5947 12.9572 16.3311 13.8167 15.9116 14.581Z" fill="black"/>
<path d="M15.1965 19.5272C13.6611 20.4675 11.9663 20.9143 10.2901 20.9143C7.1216 20.914 4.03005 19.3161 2.25439 16.4166C1.31411 14.8812 0.867323 13.1864 0.867323 11.5102C0.867706 8.34138 2.46557 5.25089 5.36539 3.47451L4.91247 2.73499C1.74656 4.67409 -0.000723005 8.05226 2.24428e-07 11.5102C-0.000382662 13.3405 0.489499 15.1955 1.51487 16.8695C3.45359 20.0347 6.83214 21.7823 10.2901 21.782C12.1203 21.782 13.9754 21.2925 15.6497 20.2671L15.1965 19.5276V19.5272Z" fill="black"/>
<path d="M8.51444 2.97025H12.5725C12.9902 2.97025 13.3292 2.82913 13.3292 2.41072C13.3292 1.99299 12.5294 1.58824 12.1117 1.58824H11.2734L9.56747 0.0524831C9.482 -0.0419622 9.14331 0.0198102 9.04061 0.0201931C8.91384 0.0209163 8.94149 0.223463 8.99033 0.341265L9.48885 1.58824H8.29501L7.64027 0.548151C7.52532 0.422819 7.34536 0.380447 7.18702 0.441836C7.02825 0.503268 6.92376 0.655912 6.92376 0.825786L6.913 1.58824V1.81342C6.91296 2.45233 7.68086 2.97025 8.51444 2.97025Z" fill="black"/>
</svg>
