<svg width="23" height="24" viewBox="0 0 23 24" fill="none" xmlns="http://www.w3.org/2000/svg">
<path d="M21.178 7.0418C20.6472 5.86271 19.8853 4.8041 18.9179 3.8918C17.9505 2.98811 16.8291 2.27377 15.5792 1.77459C14.2865 1.2582 12.9167 1 11.5042 1C10.0916 1 8.7219 1.2582 7.42921 1.77459C6.17933 2.27377 5.05786 2.97951 4.09048 3.8918C3.1231 4.8041 2.36119 5.86271 1.83042 7.0418C1.28253 8.26393 1 9.57213 1 10.9148C1 13.2643 1.8732 15.5193 3.47408 17.3094L2.61799 22L7.17239 19.9602C8.53356 20.5455 9.98035 20.8381 11.4956 20.8381C12.9082 20.8381 14.2779 20.5799 15.5706 20.0635C16.8205 19.5643 17.942 18.8586 18.9093 17.9463C19.8767 17.034 20.6386 15.9754 21.1694 14.7963C21.7173 13.5742 21.9998 12.266 21.9998 10.9234C22.0084 9.57213 21.7259 8.27254 21.178 7.0418Z" stroke="#188DFF" stroke-width="1.5"/>
<path d="M15.8157 12.7609C15.3511 12.5266 15.0116 12.3823 14.7703 12.2922C14.6184 12.2381 14.261 12.0759 14.1359 12.175C13.7428 12.4995 13.3228 13.4189 12.8761 13.5902C11.7681 13.3739 10.7406 12.6077 9.93644 11.8235C9.57903 11.481 8.91783 10.5075 8.77487 10.2461C8.74807 9.97564 9.23055 9.61508 9.33777 9.40776C9.89174 8.77679 9.47181 8.38018 9.40033 8.11878C9.27524 7.84836 9.0608 7.36161 8.87317 6.965C8.71234 6.7036 8.67656 6.316 8.39064 6.17178C7.17546 5.54081 6.47856 6.80275 6.19263 7.46076C4.46815 11.6522 14.8329 19.6295 16.9416 14.131C17.0488 13.6533 17.0041 13.473 16.8433 13.2567C16.5216 13.0313 16.1463 12.9322 15.8157 12.7609Z" stroke="#188DFF" stroke-width="1.5"/>
</svg>
